<svg id="Layer_1" data-name="Layer 1" xmlns="http://www.w3.org/2000/svg" xmlns:xlink="http://www.w3.org/1999/xlink" width="171.17" height="160.33" viewBox="0 0 171.17 160.33"><defs><style>.cls-1{fill:none;}.cls-2{isolation:isolate;}.cls-3{clip-path:url(#clip-path);}.cls-4{fill:#212f68;}.cls-5{fill:#212e65;}.cls-6{fill:#202d63;}.cls-7{fill:#1f2b60;}.cls-8{fill:#1e2a5d;}.cls-9{fill:#1d295a;}.cls-10{fill:#1c2858;}.cls-11{fill:#1b2655;}.cls-12{fill:#1a2552;}.cls-13{fill:#1a244f;}.cls-14{fill:#19234d;}.cls-15{fill:#18214a;}.cls-16{fill:#172047;}.cls-17{clip-path:url(#clip-path-2);}.cls-18{fill:#22306b;}.cls-19{clip-path:url(#clip-path-3);}.cls-20{fill:#23326e;}.cls-21{fill:#243370;}.cls-22{fill:#253473;}.cls-23{fill:#263576;}.cls-24{fill:#273779;}.cls-25{fill:#28387b;}.cls-26{fill:#28397e;}.cls-27{fill:#293a81;}.cls-28{fill:#2a3c84;}.cls-29{fill:#2b3d86;}.cls-30,.cls-56{fill:#2c3e89;}.cls-31{fill:#455597;}.cls-32{fill:#505f9d;}.cls-33{fill:#5866a2;}.cls-34{fill:#5f6ca5;}.cls-35{fill:#6572a9;}.cls-36{fill:#6a77ac;}.cls-37{fill:#6f7bae;}.cls-38{fill:#7480b1;}.cls-39{fill:#7883b3;}.cls-40{fill:#7c87b6;}.cls-41{fill:#808bb8;}.cls-42{fill:#848eba;}.cls-43{fill:#8792bc;}.cls-44{fill:#8b95be;}.cls-45{fill:#8e98c0;}.cls-46{fill:#919bc2;}.cls-47{fill:#949dc3;}.cls-48{fill:#97a0c5;}.cls-49{fill:#9aa3c7;}.cls-50{fill:#9da6c8;}.cls-51{clip-path:url(#clip-path-4);}.cls-52{clip-path:url(#clip-path-5);}.cls-53{clip-path:url(#clip-path-6);}.cls-54{clip-path:url(#clip-path-7);}.cls-55{clip-path:url(#clip-path-8);}.cls-56{font-size:69.58px;stroke:#3d79c1;stroke-miterlimit:10;font-family:Superclarendon-Regular, Superclarendon;}</style><clipPath id="clip-path" transform="translate(-1.44 -4.34)"><path class="cls-1" d="M158.29,127.72c1.06-1.55,2.49-3.61,3.41-5.25a87,87,0,0,0,4.54-8.8c.67-1.63,1.58-3.8,2.15-5.47.66-1.92,1.37-4.52,1.94-6.47a52.84,52.84,0,0,0,1.38-6.85c.45-3.26.76-7.65.86-10.94a58,58,0,0,0-.31-7c-.17-1.61-.41-3.76-.69-5.36-.37-2.1-1-4.86-1.5-6.94a66,66,0,0,0-2.19-6.85c7.93,21.19,5.31,45.81-9.63,67-26,36.65-78.59,48.4-117.56,26.77-16.49-9.13-28-22.82-33.81-38.36,1.25,3,3,7,4.54,9.86A85.38,85.38,0,0,0,17,131.7a58.57,58.57,0,0,0,4.63,5.64c1.2,1.23,2.74,2.93,4,4.1,1.61,1.51,3.8,3.49,5.55,4.82a82.76,82.76,0,0,0,11.19,7.43,117.29,117.29,0,0,0,11.35,5.25,53.52,53.52,0,0,0,6.88,2.27c2,.5,4.66,1.21,6.69,1.62,1.85.38,4.34.84,6.22,1,8.29.79,8.29.79,13,.73a93,93,0,0,0,25.26-3.89c1.83-.55,4.25-1.36,6-2s4.12-1.7,5.87-2.44a88,88,0,0,0,11.16-6.1c4-2.6,4.39-2.89,10.21-7.68,1.48-1.21,3.3-3,4.64-4.37s3.1-3.4,4.42-4.86A56.34,56.34,0,0,0,158.29,127.72Z"/></clipPath><clipPath id="clip-path-2" transform="translate(-1.44 -4.34)"><path class="cls-1" d="M167.88,57.82c7.93,21.19,5.31,45.81-9.63,67-26,36.65-78.59,48.4-117.56,26.77-16.49-9.13-28-22.82-33.81-38.36l-.75-2c5.82,15.54,17.32,29.23,33.81,38.36,39,21.62,91.61,9.88,117.56-26.77,14.93-21.17,17.56-45.79,9.63-67Z"/></clipPath><clipPath id="clip-path-3" transform="translate(-1.44 -4.34)"><path class="cls-1" d="M167.12,55.8c7.93,21.19,5.31,45.81-9.63,67-26,36.65-78.59,48.4-117.56,26.77-16.49-9.13-28-22.82-33.81-38.36a66,66,0,0,1-2.19-6.85c-.48-2.08-1.13-4.84-1.5-6.94A49.86,49.86,0,0,1,1.75,92c-.12-2.09-.29-4.88-.31-7,0-1.64.1-3.84.22-5.48a71.58,71.58,0,0,1,2-12.31A75.77,75.77,0,0,1,7.77,55.34a67.9,67.9,0,0,1,4.54-8.81c1-1.59,2.32-3.72,3.41-5.25,1.21-1.69,2.9-3.89,4.23-5.48A83.84,83.84,0,0,1,29,26.56c1.49-1.22,3.45-2.88,5-4s3.62-2.6,5.23-3.64a87,87,0,0,1,11.16-6.09A92.51,92.51,0,0,1,74.75,5.5,93.48,93.48,0,0,1,87.55,4.42a90,90,0,0,1,13,.73A88.49,88.49,0,0,1,113.42,7.8c1.81.52,4.21,1.28,6,1.93,2,.75,4.68,1.83,6.64,2.74,1.71.79,3.93,2,5.61,2.85-2.34-1.29-6.15.85-9.69,5.85C89.58,3.22,46.17,13,25,42.93S12.87,111.75,45.25,129.7s75.8,8.19,97-21.78S154.34,39.11,122,21.16c3.53-5,7.35-7.14,9.69-5.85,1.94,1.1,4.49,2.63,6.34,3.89s4.29,3.1,6.06,4.52c1.35,1.09,3.09,2.63,4.34,3.84,1.6,1.56,3.66,3.71,5.13,5.39a67.85,67.85,0,0,1,6.64,8.91c1.56,2.62,3.51,6.2,4.87,8.93C165.76,52.25,166.52,54.29,167.12,55.8Z"/></clipPath><clipPath id="clip-path-4" transform="translate(-1.44 -4.34)"><path class="cls-1" d="M131.65,15.32a3.85,3.85,0,0,1,1.66,2.13c16.49,9.13,28,22.82,33.81,38.36-1.16-2.81-2.83-6.5-4.19-9.22-.73-1.47-1.91-3.31-2.77-4.71C159,40,157.31,37.68,156,36c-1-1.34-2.5-3-3.6-4.28a78.76,78.76,0,0,0-9.55-8.92c-1.72-1.36-4.11-3.06-5.94-4.27C135.37,17.46,133.22,16.26,131.65,15.32Z"/></clipPath><clipPath id="clip-path-5" transform="translate(-1.44 -4.34)"><path class="cls-1" d="M167.12,55.8l.75,2c-5.82-15.54-17.32-29.23-33.81-38.36l-.75-2C149.8,26.57,161.3,40.27,167.12,55.8Z"/></clipPath><clipPath id="clip-path-6" transform="translate(-1.44 -4.34)"><path class="cls-1" d="M6.13,111.19C-1.81,90,.82,65.38,15.76,44.21c26-36.65,78.59-48.39,117.55-26.77a3.85,3.85,0,0,0-1.66-2.13A85.82,85.82,0,0,0,119.4,9.73,88.67,88.67,0,0,0,93.88,4.55c-2-.11-4.56-.15-6.52-.12s-4.42.18-6.31.32a93,93,0,0,0-24.8,5.6,90.9,90.9,0,0,0-11.63,5.33,119.21,119.21,0,0,0-10.68,6.89,84.88,84.88,0,0,0-9.73,8.54,83.72,83.72,0,0,0-8.48,10.17,81.6,81.6,0,0,0-5.86,9.66A100.55,100.55,0,0,0,5.27,61.82a74.83,74.83,0,0,0-3,12.3c-.32,2.1-.6,4.92-.74,7-.11,1.64-.08,3.83-.11,5.48a64.86,64.86,0,0,0,.47,7.11c.17,1.61.57,3.74.82,5.34a59.72,59.72,0,0,0,1.68,7C4.88,107.62,5.62,109.65,6.13,111.19Z"/></clipPath><clipPath id="clip-path-7" transform="translate(-1.44 -4.34)"><path class="cls-1" d="M6.88,113.21l-.75-2C-1.81,90,.82,65.38,15.76,44.21c26-36.65,78.59-48.39,117.55-26.77l.75,2C95.1-2.16,42.47,9.57,16.51,46.22,1.58,67.39-1.05,92,6.88,113.21Z"/></clipPath><clipPath id="clip-path-8" transform="translate(-1.44 -4.34)"><path class="cls-1" d="M167.88,57.82c.51,1.54,1.27,3.56,1.71,5.12.58,2.07,1.28,4.86,1.68,7,.3,1.59.65,3.73.82,5.34.22,2.13.41,5,.47,7.11,0,1.64,0,3.84-.11,5.48-.14,2.12-.44,4.94-.74,7a76.73,76.73,0,0,1-13.42,32.84,84.16,84.16,0,0,1-18,18.56,86.46,86.46,0,0,1-10.88,7,91.87,91.87,0,0,1-23.82,9,93,93,0,0,1-12.61,2,92.26,92.26,0,0,1-12.83.2,90,90,0,0,1-12.85-1.63,87.11,87.11,0,0,1-12.67-3.55,103.9,103.9,0,0,1-11.39-5.11c-1.89-1-4.33-2.46-6.11-3.63s-4.21-2.92-5.94-4.27a81.73,81.73,0,0,1-9.55-8.92c-1.11-1.26-2.58-2.95-3.6-4.28-1.32-1.73-3-4.06-4.18-5.91-.85-1.4-2-3.25-2.77-4.71-1.36-2.72-3-6.41-4.19-9.22-7.94-21.19-5.31-45.81,9.63-67C42.47,9.57,95.1-2.16,134.06,19.46c1.67,4.45-.71,13.34-5.31,19.85C96.38,21.36,53,31.1,31.78,61.07S19.66,129.89,52,147.84s75.8,8.19,97-21.78,12.11-68.81-20.27-86.76c4.6-6.51,7-15.39,5.31-19.85C150.56,28.59,162.06,42.28,167.88,57.82Z"/></clipPath></defs><title>logo</title><g class="cls-2"><g class="cls-2"><g class="cls-3"><g class="cls-2"><path class="cls-4" d="M158.29,127.72c7.41-10.88,11.93-21.93,13.42-32.84a73.21,73.21,0,0,0-3.83-37.06c7.93,21.19,5.31,45.81-9.63,67-26,36.65-78.59,48.4-117.56,26.77-16.49-9.13-28-22.82-33.81-38.36,2.43,5.84,8.9,21.35,24.28,33.05,18.39,14,35.72,17,42.32,17.59,7.08.68,14.41,1.38,25.77-.35a93.5,93.5,0,0,0,24.36-7.29c10.71-4.56,25.58-15.14,34.67-28.49" transform="translate(-1.44 -4.34)"/><path class="cls-4" d="M13.84,127.14a76.7,76.7,0,0,0,7.78,10.2l4,4.1c1.65,1.46,3.84,3.44,5.55,4.82L36,149.8c1.89,1.18,4.4,2.79,6.34,3.89L48,156.54c2,.83,4.62,2,6.64,2.74l6,1.93c2,.49,4.66,1.2,6.69,1.62l6.22,1c2,.19,4.64.49,6.63.61l6.33.12c1.95-.1,4.55-.16,6.5-.33l6.31-.76c1.89-.36,4.42-.77,6.3-1.2l6.15-1.61c1.81-.61,4.25-1.36,6-2l5.87-2.44c1.71-.86,4-1.94,5.7-2.86l5.46-3.24c1.59-1.1,3.75-2.52,5.29-3.68l4.92-4c1.45-1.36,3.42-3.13,4.81-4.55l4.25-4.69c1.27-1.64,3-3.79,4.23-5.48l3.41-5.25,1.94-3.44,2.6-5.37c.76-1.94,1.82-4.51,2.5-6.48l1.59-5.46c.43-2,1-4.78,1.38-6.85l.63-5.47c.09-2.11.23-4.93.21-7l-.29-5.4c-.27-2.12-.62-4.95-1-7.05l-1.2-5.25c-.63-2.06-1.46-4.82-2.19-6.85,7.93,21.19,5.31,45.81-9.63,67C137.41,154.21,99.38,167.58,65,160.53l-2-.39c-7.89-2.08-10.27-2.71-16.93-5.8q-2.76-1.28-5.45-2.77c-16.49-9.13-28-22.82-33.81-38.36l2.09,5c1.37,2.72,3.22,6.36,4.87,8.92" transform="translate(-1.44 -4.34)"/><path class="cls-5" d="M13.84,127.14a76.7,76.7,0,0,0,7.78,10.2l4,4.1c1.65,1.46,3.84,3.44,5.55,4.82L36,149.8c1.89,1.18,4.4,2.79,6.34,3.89L48,156.54c2,.83,4.62,2,6.64,2.74l6,1.93c2,.49,4.66,1.2,6.69,1.62l6.22,1c2,.19,4.64.49,6.63.61l6.33.12c1.95-.1,4.55-.16,6.5-.33l6.31-.76c1.89-.36,4.42-.77,6.3-1.2l6.15-1.61c1.81-.61,4.25-1.36,6-2l5.87-2.44c1.71-.86,4-1.94,5.7-2.86l5.46-3.24c1.59-1.1,3.75-2.52,5.29-3.68l4.92-4c1.45-1.36,3.42-3.13,4.81-4.55l4.25-4.69c1.27-1.64,3-3.79,4.23-5.48l3.41-5.25,1.94-3.44,2.6-5.37c.76-1.94,1.82-4.51,2.5-6.48l1.59-5.46c.43-2,1-4.78,1.38-6.85l.63-5.47c.09-2.11.23-4.93.21-7l-.29-5.4c-.27-2.12-.62-4.95-1-7.05l-1.2-5.25c-.63-2.06-1.46-4.82-2.19-6.85,7.93,21.19,5.31,45.81-9.63,67-17.67,24.95-47.7,38.36-77.37,37.55H78.79c-9.38-.54-26.85-1.54-46.28-16A72.19,72.19,0,0,1,6.88,113.21l2.09,5c1.37,2.72,3.22,6.36,4.87,8.92" transform="translate(-1.44 -4.34)"/><path class="cls-6" d="M13.84,127.14a76.7,76.7,0,0,0,7.78,10.2l4,4.1c1.65,1.46,3.84,3.44,5.55,4.82L36,149.8c1.89,1.18,4.4,2.79,6.34,3.89L48,156.54c2,.83,4.62,2,6.64,2.74l6,1.93c2,.49,4.66,1.2,6.69,1.62l6.22,1c2,.19,4.64.49,6.63.61l6.33.12c1.95-.1,4.55-.16,6.5-.33l6.31-.76c1.89-.36,4.42-.77,6.3-1.2l6.15-1.61c1.81-.61,4.25-1.36,6-2l5.87-2.44c1.71-.86,4-1.94,5.7-2.86l5.46-3.24c1.59-1.1,3.75-2.52,5.29-3.68l4.92-4c1.45-1.36,3.42-3.13,4.81-4.55l4.25-4.69c1.27-1.64,3-3.79,4.23-5.48l3.41-5.25,1.94-3.44,2.6-5.37c.76-1.94,1.82-4.51,2.5-6.48l1.59-5.46c.43-2,1-4.78,1.38-6.85l.63-5.47c.09-2.11.23-4.93.21-7l-.29-5.4c-.27-2.12-.62-4.95-1-7.05l-1.2-5.25c-.63-2.06-1.46-4.82-2.19-6.85,7.93,21.19,5.31,45.81-9.63,67C142.54,147,117.05,160,90.74,162.09h0c-25.13,2.71-47.14-4.57-65.44-21.62A71.21,71.21,0,0,1,6.88,113.21l2.09,5c1.37,2.72,3.22,6.36,4.87,8.92" transform="translate(-1.44 -4.34)"/><path class="cls-7" d="M13.84,127.14a76.7,76.7,0,0,0,7.78,10.2l4,4.1c1.65,1.46,3.84,3.44,5.55,4.82L36,149.8c1.89,1.18,4.4,2.79,6.34,3.89L48,156.54c2,.83,4.62,2,6.64,2.74l6,1.93c2,.49,4.66,1.2,6.69,1.62l6.22,1c2,.19,4.64.49,6.63.61l6.33.12c1.95-.1,4.55-.16,6.5-.33l6.31-.76c1.89-.36,4.42-.77,6.3-1.2l6.15-1.61c1.81-.61,4.25-1.36,6-2l5.87-2.44c1.71-.86,4-1.94,5.7-2.86l5.46-3.24c1.59-1.1,3.75-2.52,5.29-3.68l4.92-4c1.45-1.36,3.42-3.13,4.81-4.55l4.25-4.69c1.27-1.64,3-3.79,4.23-5.48l3.41-5.25,1.94-3.44,2.6-5.37c.76-1.94,1.82-4.51,2.5-6.48l1.59-5.46c.43-2,1-4.78,1.38-6.85l.63-5.47c.09-2.11.23-4.93.21-7l-.29-5.4c-.27-2.12-.62-4.95-1-7.05l-1.2-5.25c-.63-2.06-1.46-4.82-2.19-6.85,7.93,21.19,5.31,45.81-9.63,67-14.09,19.89-36,32.45-59.4,36.31h0c-30.38,6.27-58.38-3-78.85-26.07A70.56,70.56,0,0,1,6.88,113.21l2.09,5c1.37,2.72,3.22,6.36,4.87,8.92" transform="translate(-1.44 -4.34)"/><path class="cls-8" d="M13.84,127.14a76.7,76.7,0,0,0,7.78,10.2l4,4.1c1.65,1.46,3.84,3.44,5.55,4.82L36,149.8c1.89,1.18,4.4,2.79,6.34,3.89L48,156.54c2,.83,4.62,2,6.64,2.74l6,1.93c2,.49,4.66,1.2,6.69,1.62l6.22,1c2,.19,4.64.49,6.63.61l6.33.12c1.95-.1,4.55-.16,6.5-.33l6.31-.76c1.89-.36,4.42-.77,6.3-1.2l6.15-1.61c1.81-.61,4.25-1.36,6-2l5.87-2.44c1.71-.86,4-1.94,5.7-2.86l5.46-3.24c1.59-1.1,3.75-2.52,5.29-3.68l4.92-4c1.45-1.36,3.42-3.13,4.81-4.55l4.25-4.69c1.27-1.64,3-3.79,4.23-5.48l3.41-5.25,1.94-3.44,2.6-5.37c.76-1.94,1.82-4.51,2.5-6.48l1.59-5.46c.43-2,1-4.78,1.38-6.85l.63-5.47c.09-2.11.23-4.93.21-7l-.29-5.4c-.27-2.12-.62-4.95-1-7.05l-1.2-5.25c-.63-2.06-1.46-4.82-2.19-6.85,7.93,21.19,5.31,45.81-9.63,67-12.64,17.85-31.62,29.8-52.26,34.85l-3.48,1.06c-50.92,12.13-79.24-20.6-86.71-30.93a70.08,70.08,0,0,1-8.91-16.56h0a84.46,84.46,0,0,0,7,13.93" transform="translate(-1.44 -4.34)"/><path class="cls-9" d="M13.84,127.14a76.7,76.7,0,0,0,7.78,10.2l4,4.1c1.65,1.46,3.84,3.44,5.55,4.82L36,149.8c1.89,1.18,4.4,2.79,6.34,3.89L48,156.54c2,.83,4.62,2,6.64,2.74l6,1.93c2,.49,4.66,1.2,6.69,1.62l6.22,1c2,.19,4.64.49,6.63.61l6.33.12c1.95-.1,4.55-.16,6.5-.33l6.31-.76c1.89-.36,4.42-.77,6.3-1.2l6.15-1.61c1.81-.61,4.25-1.36,6-2l5.87-2.44c1.71-.86,4-1.94,5.7-2.86l5.46-3.24c1.59-1.1,3.75-2.52,5.29-3.68l4.92-4c1.45-1.36,3.42-3.13,4.81-4.55l4.25-4.69c1.27-1.64,3-3.79,4.23-5.48l3.41-5.25,1.94-3.44,2.6-5.37c.76-1.94,1.82-4.51,2.5-6.48l1.59-5.46c.43-2,1-4.78,1.38-6.85l.63-5.47c.09-2.11.23-4.93.21-7l-.29-5.4c-.27-2.12-.62-4.95-1-7.05l-1.2-5.25c-.63-2.06-1.46-4.82-2.19-6.85,7.93,21.19,5.31,45.81-9.63,67a89.27,89.27,0,0,1-45.72,33h0c-36.92,14.87-80,.58-100.18-33.25a69.72,69.72,0,0,1-5.46-11.34l2.09,5c1.37,2.72,3.22,6.36,4.87,8.92" transform="translate(-1.44 -4.34)"/><path class="cls-10" d="M13.84,127.14a76.7,76.7,0,0,0,7.78,10.2l4,4.1c1.65,1.46,3.84,3.44,5.55,4.82L36,149.8c1.89,1.18,4.4,2.79,6.34,3.89L48,156.54c2,.83,4.62,2,6.64,2.74l6,1.93c2,.49,4.66,1.2,6.69,1.62l6.22,1c2,.19,4.64.49,6.63.61l6.33.12c1.95-.1,4.55-.16,6.5-.33l6.31-.76c1.89-.36,4.42-.77,6.3-1.2l6.15-1.61c1.81-.61,4.25-1.36,6-2l5.87-2.44c1.71-.86,4-1.94,5.7-2.86l5.46-3.24c1.59-1.1,3.75-2.52,5.29-3.68l4.92-4c1.45-1.36,3.42-3.13,4.81-4.55l4.25-4.69c1.27-1.64,3-3.79,4.23-5.48l3.41-5.25,1.94-3.44,2.6-5.37c.76-1.94,1.82-4.51,2.5-6.48l1.59-5.46c.43-2,1-4.78,1.38-6.85l.63-5.47c.09-2.11.23-4.93.21-7l-.29-5.4c-.27-2.12-.62-4.95-1-7.05l-1.2-5.25c-.63-2.06-1.46-4.82-2.19-6.85,7.93,21.19,5.31,45.81-9.63,67a88.51,88.51,0,0,1-39.6,30.8l-1,.51c-46,20.7-91.94-3-108.17-36.82q-1.45-3-2.61-6.06l2.09,5c1.37,2.72,3.22,6.36,4.87,8.92" transform="translate(-1.44 -4.34)"/><path class="cls-11" d="M42.35,153.69a84.71,84.71,0,0,0,12.25,5.58l6,1.93c2,.49,4.66,1.2,6.69,1.62l6.22,1c2,.19,4.64.49,6.63.61l6.33.12c1.95-.1,4.55-.16,6.5-.33l6.31-.76c1.89-.36,4.42-.77,6.3-1.2l6.15-1.61c1.81-.61,4.25-1.36,6-2l5.87-2.44c1.71-.86,4-1.94,5.7-2.86l5.46-3.24c1.59-1.1,3.75-2.52,5.29-3.68l4.92-4c1.45-1.36,3.42-3.13,4.81-4.55l4.25-4.69c1.27-1.64,3-3.79,4.23-5.48l3.41-5.25,1.94-3.44,2.6-5.37c.76-1.94,1.82-4.51,2.5-6.48l1.59-5.46c.43-2,1-4.78,1.38-6.85l.63-5.47c.09-2.11.23-4.93.21-7l-.29-5.4c-.27-2.12-.62-4.95-1-7.05l-1.2-5.25c-.63-2.06-1.46-4.82-2.19-6.85,7.93,21.19,5.31,45.81-9.63,67A87.75,87.75,0,0,1,124.48,153l-4.25,2.41c-12,6.2-43.87,18.24-81.59-3.93,1.11.65,2.58,1.56,3.72,2.18" transform="translate(-1.44 -4.34)"/><path class="cls-11" d="M7.72,115.34l-.59-1.48-.25-.66.84,2.14" transform="translate(-1.44 -4.34)"/><path class="cls-12" d="M54.6,159.27a87.88,87.88,0,0,0,12.67,3.55l6.22,1c2,.19,4.64.49,6.63.61l6.33.12c1.95-.1,4.55-.16,6.5-.33l6.31-.76c1.89-.36,4.42-.77,6.3-1.2l6.15-1.61c1.81-.61,4.25-1.36,6-2l5.87-2.44c1.71-.86,4-1.94,5.7-2.86l5.46-3.24c1.59-1.1,3.75-2.52,5.29-3.68l4.92-4c1.45-1.36,3.42-3.13,4.81-4.55l4.25-4.69c1.27-1.64,3-3.79,4.23-5.48l3.41-5.25,1.94-3.44,2.6-5.37c.76-1.94,1.82-4.51,2.5-6.48l1.59-5.46c.43-2,1-4.78,1.38-6.85l.63-5.47c.09-2.11.23-4.93.21-7l-.29-5.4c-.27-2.12-.62-4.95-1-7.05l-1.2-5.25c-.63-2.06-1.46-4.82-2.19-6.85,7.93,21.19,5.31,45.81-9.63,67a87,87,0,0,1-28.11,25.27l-3.91,2.64c-9.74,6.07-36.24,18.86-71.85,6.49l.22.08" transform="translate(-1.44 -4.34)"/><path class="cls-13" d="M80.12,164.45c8.47.17,8.47.17,12.83-.2l6.31-.76c1.89-.36,4.42-.77,6.3-1.2l6.15-1.61c1.81-.61,4.25-1.36,6-2l5.87-2.44c1.71-.86,4-1.94,5.7-2.86l5.46-3.24c1.59-1.1,3.75-2.52,5.29-3.68l4.92-4c1.45-1.36,3.42-3.13,4.81-4.55l4.25-4.69c1.27-1.64,3-3.79,4.23-5.48l3.41-5.25,1.94-3.44,2.6-5.37c.76-1.94,1.82-4.51,2.5-6.48l1.59-5.46c.43-2,1-4.78,1.38-6.85l.63-5.47c.09-2.11.23-4.93.21-7l-.29-5.4c-.27-2.12-.62-4.95-1-7.05l-1.2-5.25c-.63-2.06-1.46-4.82-2.19-6.85,7.93,21.19,5.31,45.81-9.63,67a86.22,86.22,0,0,1-22.49,21.8l-3.57,2.84C120.06,158.38,99.12,168,68.27,163l6.23,1,5.62.48" transform="translate(-1.44 -4.34)"/><path class="cls-14" d="M92.95,164.25c8.42-1,8.42-1,12.61-2l6.15-1.61c1.81-.61,4.25-1.36,6-2l5.87-2.44c1.71-.86,4-1.94,5.7-2.86l5.46-3.24c1.59-1.1,3.75-2.52,5.29-3.68l4.92-4c1.45-1.36,3.42-3.13,4.81-4.55l4.25-4.69c1.27-1.64,3-3.79,4.23-5.48l3.41-5.25,1.94-3.44,2.6-5.37c.76-1.94,1.82-4.51,2.5-6.48l1.59-5.46c.43-2,1-4.78,1.38-6.85l.63-5.47c.09-2.11.23-4.93.21-7l-.29-5.4c-.27-2.12-.62-4.95-1-7.05l-1.2-5.25c-.63-2.06-1.46-4.82-2.19-6.85,7.93,21.19,5.31,45.81-9.63,67a85.46,85.46,0,0,1-16.81,17.67l-2.77,2.63C124,158.16,103.31,165.25,82,164.54H88.3l4.65-.28" transform="translate(-1.44 -4.34)"/><path class="cls-15" d="M105.56,162.3c8.22-2.16,8.22-2.16,12.19-3.65l5.87-2.44c1.71-.86,4-1.94,5.7-2.86l5.46-3.24c1.59-1.1,3.75-2.52,5.29-3.68l4.92-4c1.45-1.36,3.42-3.13,4.81-4.55l4.25-4.69c1.27-1.64,3-3.79,4.23-5.48l3.41-5.25,1.94-3.44,2.6-5.37c.76-1.94,1.82-4.51,2.5-6.48l1.59-5.46c.43-2,1-4.78,1.38-6.85l.63-5.47c.09-2.11.23-4.93.21-7l-.29-5.4c-.27-2.12-.62-4.95-1-7.05l-1.2-5.25c-.63-2.06-1.46-4.82-2.19-6.85,7.93,21.19,5.31,45.81-9.63,67a84.7,84.7,0,0,1-10.87,12.52l-2.47,2.84c-17.44,18.91-40.55,22.52-48.14,23.7l6.27-1,2.52-.53" transform="translate(-1.44 -4.34)"/><path class="cls-16" d="M117.74,158.65a91.07,91.07,0,0,0,11.57-5.3l5.46-3.24c1.59-1.1,3.75-2.52,5.29-3.68l4.92-4c1.45-1.36,3.42-3.13,4.81-4.55l4.25-4.69c1.27-1.64,3-3.79,4.23-5.48l3.41-5.25,1.94-3.44,2.6-5.37c.76-1.94,1.82-4.51,2.5-6.48l1.59-5.46c.43-2,1-4.78,1.38-6.85l.63-5.47c.09-2.11.23-4.93.21-7l-.29-5.4c-.27-2.12-.62-4.95-1-7.05l-1.2-5.25c-.63-2.06-1.46-4.82-2.19-6.85,7.93,21.19,5.31,45.81-9.63,67q-2,2.8-4.17,5.41h0c-12.19,17.89-26.74,25-40.66,30,1.3-.45,3-1,4.32-1.5" transform="translate(-1.44 -4.34)"/></g></g></g><g class="cls-2"><g class="cls-17"><g class="cls-2"><path class="cls-16" d="M167.88,57.82l-.75-2c7.93,21.19,5.31,45.81-9.63,67q-2.06,2.9-4.33,5.6l.75,2q2.27-2.69,4.33-5.6c14.93-21.17,17.56-45.79,9.63-67" transform="translate(-1.44 -4.34)"/><path class="cls-15" d="M153.92,130.39l-.75-2a85.31,85.31,0,0,1-6.58,7l.75,2a85.31,85.31,0,0,0,6.58-7" transform="translate(-1.44 -4.34)"/><path class="cls-14" d="M147.34,137.35l-.75-2q-2.86,2.71-5.94,5.14l.75,2q3.08-2.43,5.94-5.14" transform="translate(-1.44 -4.34)"/><path class="cls-13" d="M141.4,142.49l-.75-2q-2.75,2.17-5.66,4.12l.75,2q2.91-1.94,5.66-4.12" transform="translate(-1.44 -4.34)"/><path class="cls-12" d="M135.74,146.61l-.75-2q-2.74,1.83-5.59,3.45l.75,2q2.86-1.62,5.59-3.45" transform="translate(-1.44 -4.34)"/><path class="cls-11" d="M130.14,150.06l-.75-2q-2.78,1.58-5.66,3l.75,2q2.88-1.38,5.66-3" transform="translate(-1.44 -4.34)"/><path class="cls-10" d="M124.48,153l-.75-2q-2.87,1.38-5.83,2.56l.75,2q3-1.18,5.83-2.56" transform="translate(-1.44 -4.34)"/><path class="cls-9" d="M118.65,155.59l-.75-2q-3,1.2-6.11,2.2l.75,2q3.09-1,6.11-2.2" transform="translate(-1.44 -4.34)"/><path class="cls-8" d="M112.54,157.79l-.75-2q-3.22,1-6.51,1.85l.75,2q3.29-.81,6.51-1.85" transform="translate(-1.44 -4.34)"/><path class="cls-7" d="M106,159.63l-.75-2q-3.52.86-7.1,1.46l.75,2q3.58-.59,7.1-1.46" transform="translate(-1.44 -4.34)"/><path class="cls-6" d="M98.92,161.09l-.75-2q-4,.67-8.06,1l.75,2q4-.32,8.06-1" transform="translate(-1.44 -4.34)"/><path class="cls-5" d="M90.87,162.08l-.75-2a93.93,93.93,0,0,1-10,.26l.75,2a93.93,93.93,0,0,0,10-.26" transform="translate(-1.44 -4.34)"/><path class="cls-4" d="M80.91,162.35l-.75-2a91.08,91.08,0,0,1-15.38-1.72l.75,2a91.08,91.08,0,0,0,15.38,1.72" transform="translate(-1.44 -4.34)"/><path class="cls-18" d="M65.53,160.63l-.75-2a86.31,86.31,0,0,1-19.68-6.43l.75,2a86.31,86.31,0,0,0,19.68,6.43" transform="translate(-1.44 -4.34)"/><path class="cls-4" d="M45.85,154.2l-.75-2q-2.61-1.22-5.16-2.63a80.72,80.72,0,0,1-8.18-5.18l.75,2a80.72,80.72,0,0,0,8.18,5.18q2.54,1.41,5.16,2.63" transform="translate(-1.44 -4.34)"/><path class="cls-5" d="M32.52,146.38l-.75-2a76.66,76.66,0,0,1-7.31-6l.75,2a76.66,76.66,0,0,0,7.31,6" transform="translate(-1.44 -4.34)"/><path class="cls-6" d="M25.2,140.38l-.75-2A73.91,73.91,0,0,1,19.21,133l.75,2a73.91,73.91,0,0,0,5.24,5.39" transform="translate(-1.44 -4.34)"/><path class="cls-7" d="M20,135l-.75-2Q17,130.43,15,127.74l.75,2q2,2.69,4.18,5.23" transform="translate(-1.44 -4.34)"/><path class="cls-8" d="M15.78,129.75l-.75-2q-1.84-2.54-3.44-5.21l.75,2q1.59,2.66,3.44,5.21" transform="translate(-1.44 -4.34)"/><path class="cls-9" d="M12.35,124.54l-.75-2q-1.55-2.58-2.86-5.27l.75,2q1.31,2.69,2.86,5.27" transform="translate(-1.44 -4.34)"/><path class="cls-10" d="M9.49,119.27l-.75-2q-1.3-2.66-2.36-5.42l.75,2q1.06,2.75,2.36,5.42" transform="translate(-1.44 -4.34)"/><path class="cls-11" d="M7.13,113.86l-.75-2-.25-.65.75,2,.25.65" transform="translate(-1.44 -4.34)"/></g></g></g><g class="cls-2"><g class="cls-19"><g class="cls-2"><path class="cls-4" d="M167.12,55.8C163.5,47.11,156,29,131.65,15.32c-2.34-1.29-6.15.85-9.69,5.85,32.38,17.95,41.45,56.79,20.27,86.76s-64.6,39.73-97,21.78S3.8,72.91,25,42.93s64.6-39.72,97-21.77c3.53-5,7.35-7.14,9.69-5.85C123,11,107,2.83,81.24,4.73A91.23,91.23,0,0,0,34,22.52C12.77,38.38-7.43,70.67,5.52,109.5c.17.51.43,1.18.61,1.69,5.82,15.54,17.32,29.23,33.81,38.36,39,21.62,91.61,9.88,117.56-26.77,14.93-21.17,17.56-45.79,9.63-67" transform="translate(-1.44 -4.34)"/><path class="cls-4" d="M131.65,15.32h0L119.4,9.73l-6-1.93c-2-.49-4.66-1.2-6.69-1.62l-6.22-1c-2-.19-4.64-.49-6.63-.61l-6.33-.13c-1.95.1-4.55.16-6.5.32l-6.31.76c-1.89.36-4.42.77-6.3,1.2L62.29,8.32c-1.81.61-4.25,1.36-6,2l-5.87,2.44c-1.71.86-4,1.94-5.7,2.86l-5.46,3.24c-1.59,1.1-3.75,2.52-5.29,3.68l-4.92,4c-1.45,1.36-3.42,3.13-4.81,4.55L20,35.8c-1.27,1.64-3,3.79-4.23,5.48l-3.41,5.25L10.37,50l-2.6,5.37C7,57.28,5.95,59.85,5.27,61.82L3.68,67.28c-.43,2-1,4.78-1.38,6.85L1.66,79.6c-.09,2.11-.23,4.93-.21,7L1.75,92c.27,2.12.62,4.95,1,7.05l1.2,5.25c.63,2.06,1.46,4.82,2.19,6.85,5.82,15.54,17.32,29.23,33.81,38.36q2.68,1.49,5.45,2.77l-5.49-2.89C-10,117.68,7.61,72.91,10.06,71.94a1,1,0,0,1,.88.08c1.71,1.47.89,5.2,1.07,7.46,2.56,31.34,25.05,49.45,45.25,56,13,4.17,46.69,10.69,80-18.76,1.09-1,2.57-2.8,4-2.7a1.17,1.17,0,0,1,.79.61c1.26,2.55-17.28,53.17-77.8,43.93,34.35,7.06,72.39-6.32,93.22-35.74,14.93-21.17,17.56-45.79,9.63-67l-2.09-5c-1.38-2.72-3.31-6.31-4.87-8.93L157,37.31c-1.37-1.71-3.18-4-4.63-5.64l-4-4.1c-1.65-1.46-3.84-3.44-5.55-4.82L138,19.2c-1.89-1.18-4.4-2.79-6.34-3.89-2.34-1.29-6.15.85-9.69,5.85,32.38,17.95,41.45,56.79,20.27,86.76s-64.6,39.73-97,21.78S3.8,72.91,25,42.93s64.6-39.72,97-21.77c3.53-5,7.35-7.14,9.69-5.85" transform="translate(-1.44 -4.34)"/><path class="cls-5" d="M131.65,15.32h0L119.4,9.73l-6-1.93c-2-.49-4.66-1.2-6.69-1.62l-6.22-1c-2-.19-4.64-.49-6.63-.61l-6.33-.13c-1.95.1-4.55.16-6.5.32l-6.31.76c-1.89.36-4.42.77-6.3,1.2L62.29,8.32c-1.81.61-4.25,1.36-6,2l-5.87,2.44c-1.71.86-4,1.94-5.7,2.86l-5.46,3.24c-1.59,1.1-3.75,2.52-5.29,3.68l-4.92,4c-1.45,1.36-3.42,3.13-4.81,4.55L20,35.8c-1.27,1.64-3,3.79-4.23,5.48l-3.41,5.25L10.37,50l-2.6,5.37C7,57.28,5.95,59.85,5.27,61.82L3.68,67.28c-.43,2-1,4.78-1.38,6.85L1.66,79.6c-.09,2.11-.23,4.93-.21,7L1.75,92c.27,2.12.62,4.95,1,7.05l1.2,5.25c.63,2.06,1.46,4.82,2.19,6.85a72.19,72.19,0,0,0,25.63,33.17l-4.69-3.87c-40.45-38.88-15.39-78.88-12.86-79.93.26-.11.77-.13.95.09,1.33,1.65-.73,4.9-1.08,7C9,97.28,26.87,125,57.43,135.07c25.62,8.44,63.6,3.11,86.44-28.55.62-.85,1.16-2.59,2.2-2.74a1,1,0,0,1,.83.54c.26.51-5.53,53-66.77,56,29.67.8,59.7-12.61,77.37-37.55,14.93-21.17,17.56-45.79,9.63-67l-2.09-5c-1.38-2.72-3.31-6.31-4.87-8.93L157,37.31c-1.37-1.71-3.18-4-4.63-5.64l-4-4.1c-1.65-1.46-3.84-3.44-5.55-4.82L138,19.2c-1.89-1.18-4.4-2.79-6.34-3.89-2.34-1.29-6.15.85-9.69,5.85,32.38,17.95,41.45,56.79,20.27,86.76s-64.6,39.73-97,21.78S3.8,72.91,25,42.93s64.6-39.72,97-21.77c3.53-5,7.35-7.14,9.69-5.85" transform="translate(-1.44 -4.34)"/><path class="cls-6" d="M131.65,15.32c-7.34-3.73-7.63-3.87-12.25-5.58l-6-1.93c-2-.49-4.66-1.2-6.69-1.62l-6.22-1c-2-.19-4.64-.49-6.63-.61l-6.33-.13c-1.95.1-4.55.16-6.5.32l-6.31.76c-1.89.36-4.42.77-6.3,1.2L62.29,8.32c-1.81.61-4.25,1.36-6,2l-5.87,2.44c-1.71.86-4,1.94-5.7,2.86l-5.46,3.24c-1.59,1.1-3.75,2.52-5.29,3.68l-4.92,4c-1.45,1.36-3.42,3.13-4.81,4.55L20,35.8c-1.27,1.64-3,3.79-4.23,5.48l-3.41,5.25L10.37,50l-2.6,5.37C7,57.28,5.95,59.85,5.27,61.82L3.68,67.28c-.43,2-1,4.78-1.38,6.85L1.66,79.6c-.09,2.11-.23,4.93-.21,7L1.75,92c.27,2.12.62,4.95,1,7.05l1.2,5.25c.63,2.06,1.46,4.82,2.19,6.85a71.21,71.21,0,0,0,18.42,27.27L21.4,135.2C-27,78.39,34.06,8.12,90.46,11.88a74.69,74.69,0,0,1,31.73,9c3.47-4.77,7.17-6.79,9.46-5.53" transform="translate(-1.44 -4.34)"/><path class="cls-7" d="M131.65,15.32c-7.34-3.73-7.63-3.87-12.25-5.58l-6-1.93c-2-.49-4.66-1.2-6.69-1.62l-6.22-1c-2-.19-4.64-.49-6.63-.61l-6.33-.13c-1.95.1-4.55.16-6.5.32l-6.31.76c-1.89.36-4.42.77-6.3,1.2L62.29,8.32c-1.81.61-4.25,1.36-6,2l-5.87,2.44c-1.71.86-4,1.94-5.7,2.86l-5.46,3.24c-1.59,1.1-3.75,2.52-5.29,3.68l-4.92,4c-1.45,1.36-3.42,3.13-4.81,4.55L20,35.8c-1.27,1.64-3,3.79-4.23,5.48l-3.41,5.25L10.37,50l-2.6,5.37C7,57.28,5.95,59.85,5.27,61.82L3.68,67.28c-.43,2-1,4.78-1.38,6.85L1.66,79.6c-.09,2.11-.23,4.93-.21,7L1.75,92c.27,2.12.62,4.95,1,7.05l1.2,5.25c.63,2.06,1.46,4.82,2.19,6.85A70.56,70.56,0,0,0,19.24,133l-2.71-3.45C-26.4,68.47,41.16,3.41,97.14,12.09c13.84,2.15,21.31,6.21,25.32,8.39,3.39-4.51,7-6.39,9.19-5.16" transform="translate(-1.44 -4.34)"/><path class="cls-8" d="M131.65,15.32c-7.34-3.73-7.63-3.87-12.25-5.58l-6-1.93c-2-.49-4.66-1.2-6.69-1.62l-6.22-1c-2-.19-4.64-.49-6.63-.61l-6.33-.13c-1.95.1-4.55.16-6.5.32l-6.31.76c-1.89.36-4.42.77-6.3,1.2L62.29,8.32c-1.81.61-4.25,1.36-6,2l-5.87,2.44c-1.71.86-4,1.94-5.7,2.86l-5.46,3.24c-1.59,1.1-3.75,2.52-5.29,3.68l-4.92,4c-1.45,1.36-3.42,3.13-4.81,4.55L20,35.8c-1.27,1.64-3,3.79-4.23,5.48l-3.41,5.25L10.37,50l-2.6,5.37C7,57.28,5.95,59.85,5.27,61.82L3.68,67.28c-.43,2-1,4.78-1.38,6.85L1.66,79.6c-.09,2.11-.23,4.93-.21,7L1.75,92c.27,2.12.62,4.95,1,7.05l1.2,5.25c.63,2.06,1.46,4.82,2.19,6.85A70.08,70.08,0,0,0,15,127.76l-2.74-4.25C-22,64.1,44.6-1.75,103.84,12.88a75.66,75.66,0,0,1,18.91,7.22c3.3-4.24,6.74-6,8.9-4.79" transform="translate(-1.44 -4.34)"/><path class="cls-9" d="M131.65,15.32h0L119.4,9.73l-6-1.93c-2-.49-4.66-1.2-6.69-1.62l-6.22-1c-2-.19-4.64-.49-6.63-.61l-6.33-.13c-1.95.1-4.55.16-6.5.32l-6.31.76c-1.89.36-4.42.77-6.3,1.2L62.29,8.32c-1.81.61-4.25,1.36-6,2l-5.87,2.44c-1.71.86-4,1.94-5.7,2.86l-5.46,3.24c-1.59,1.1-3.75,2.52-5.29,3.68l-4.92,4c-1.45,1.36-3.42,3.13-4.81,4.55L20,35.8c-1.27,1.64-3,3.79-4.23,5.48l-3.41,5.25L10.37,50l-2.6,5.37C7,57.28,5.95,59.85,5.27,61.82L3.68,67.28c-.43,2-1,4.78-1.38,6.85L1.66,79.6c-.09,2.11-.23,4.93-.21,7L1.75,92c.27,2.12.62,4.95,1,7.05l1.2,5.25c.63,2.06,1.46,4.82,2.19,6.85a69.72,69.72,0,0,0,5.46,11.34l-2.35-4.41C-21.28,54.54,51.3-6.14,110.52,14.29A72.15,72.15,0,0,1,123,19.74c3.21-4,6.51-5.59,8.61-4.43" transform="translate(-1.44 -4.34)"/><path class="cls-6" d="M157.49,122.77c14.93-21.17,17.56-45.79,9.63-67l-2.09-5c-1.38-2.72-3.31-6.31-4.87-8.93L157,37.31c-1.37-1.71-3.18-4-4.63-5.64l-4-4.1c-1.65-1.46-3.84-3.44-5.55-4.82L138,19.2c-1.89-1.18-4.4-2.79-6.34-3.89-2.29-1.27-6,.76-9.46,5.53l4.71,2.85c36.62,24.69,27.41,62.39,23.48,78.49-9.84,40.31-36.23,53.41-56.64,57.3-1.12.21-2.64.42-3.76.59,26.31-2.06,51.8-15.12,67.51-37.3" transform="translate(-1.44 -4.34)"/><path class="cls-10" d="M131.65,15.32c-7.34-3.73-7.63-3.87-12.25-5.58l-6-1.93c-2-.49-4.66-1.2-6.69-1.62l-6.22-1c-2-.19-4.64-.49-6.63-.61l-6.33-.13c-1.95.1-4.55.16-6.5.32l-6.31.76c-1.89.36-4.42.77-6.3,1.2L62.29,8.32c-1.81.61-4.25,1.36-6,2l-5.87,2.44c-1.71.86-4,1.94-5.7,2.86l-5.46,3.24c-1.59,1.1-3.75,2.52-5.29,3.68l-4.92,4c-1.45,1.36-3.42,3.13-4.81,4.55L20,35.8c-1.27,1.64-3,3.79-4.23,5.48l-3.41,5.25L10.37,50l-2.6,5.37C7,57.28,5.95,59.85,5.27,61.82L3.68,67.28c-.43,2-1,4.78-1.38,6.85L1.66,79.6c-.09,2.11-.23,4.93-.21,7L1.75,92c.27,2.12.62,4.95,1,7.05l1.2,5.25c.63,2.06,1.46,4.82,2.19,6.85s1.64,4.08,2.61,6.06L6.8,112.81C-18.87,46.68,60.06-9.53,117.14,16.31c1.89.86,4.38,2.07,6.2,3.05,3.11-3.7,6.27-5.18,8.3-4.05" transform="translate(-1.44 -4.34)"/><path class="cls-7" d="M157.49,122.77c14.93-21.17,17.56-45.79,9.63-67l-2.09-5c-1.38-2.72-3.31-6.31-4.87-8.93L157,37.31c-1.37-1.71-3.18-4-4.63-5.64l-4-4.1c-1.65-1.46-3.84-3.44-5.55-4.82L138,19.2c-1.89-1.18-4.4-2.79-6.34-3.89-2.23-1.23-5.8.65-9.19,5.16l4.75,2.86c48.93,32.83,30.15,120.37-29.12,135.75,23.36-3.86,45.31-16.42,59.4-36.31" transform="translate(-1.44 -4.34)"/><path class="cls-18" d="M8,80.47C-6.84,102.88,29,172,93.21,157.83c34.68-7.65,46.15-35.5,45.18-37.71a1.26,1.26,0,0,0-.76-.67c-.83-.16-.83-.16-8.87,5.12-30.14,19.78-57.13,15.75-70.54,11.58C40.57,130.67,18,117,10.92,82.89a9.83,9.83,0,0,0-1.19-3.15,1.1,1.1,0,0,0-.88-.17c-.35.12-.61.61-.82.91" transform="translate(-1.44 -4.34)"/><path class="cls-11" d="M131.65,15.32c-7.34-3.73-7.63-3.87-12.25-5.58l-6-1.93c-2-.49-4.66-1.2-6.69-1.62l-6.22-1c-2-.19-4.64-.49-6.63-.61l-6.33-.13c-1.95.1-4.55.16-6.5.32l-6.31.76c-1.89.36-4.42.77-6.3,1.2L62.29,8.32c-1.81.61-4.25,1.36-6,2l-5.87,2.44c-1.71.86-4,1.94-5.7,2.86l-5.46,3.24c-1.59,1.1-3.75,2.52-5.29,3.68l-4.92,4c-1.45,1.36-3.42,3.13-4.81,4.55L20,35.8c-1.27,1.64-3,3.79-4.23,5.48l-3.41,5.25L10.37,50l-2.6,5.37C7,57.28,5.95,59.85,5.27,61.82L3.68,67.28c-.43,2-1,4.78-1.38,6.85L1.66,79.6c-.09,2.11-.23,4.93-.21,7L1.75,92c.27,2.12.62,4.95,1,7.05l1.2,5.25c.63,2.06,1.46,4.82,2.19,6.85l.25.66h0C-18.4,46.22,60.87-9.67,117.42,15.92c1.9.86,4.41,2.08,6.25,3.08,3-3.43,6-4.77,8-3.68" transform="translate(-1.44 -4.34)"/><path class="cls-8" d="M157.49,122.77c14.93-21.17,17.56-45.79,9.63-67l-2.09-5c-1.38-2.72-3.31-6.31-4.87-8.93L157,37.31c-1.37-1.71-3.18-4-4.63-5.64l-4-4.1c-1.65-1.46-3.84-3.44-5.55-4.82L138,19.2c-1.89-1.18-4.4-2.79-6.34-3.89-2.16-1.2-5.6.55-8.9,4.79L127.54,23c48.3,32.28,34.75,114.07-22.3,134.65,20.64-5.06,39.62-17,52.26-34.85" transform="translate(-1.44 -4.34)"/><path class="cls-12" d="M131.65,15.32c-7.34-3.73-7.63-3.87-12.25-5.58l-6-1.93c-2-.49-4.66-1.2-6.69-1.62l-6.22-1c-2-.19-4.64-.49-6.63-.61l-6.33-.13c-1.95.1-4.55.16-6.5.32l-6.31.76c-1.89.36-4.42.77-6.3,1.2L62.29,8.32c-1.81.61-4.25,1.36-6,2l-5.87,2.44c-1.71.86-4,1.94-5.7,2.86l-5.46,3.24c-1.59,1.1-3.75,2.52-5.29,3.68l-4.92,4c-1.45,1.36-3.42,3.13-4.81,4.55L20,35.8c-1.27,1.64-3,3.79-4.23,5.48l-3.41,5.25L10.37,50l-2.6,5.37C7,57.28,5.95,59.85,5.27,61.82L3.68,67.28c-.43,2-1,4.78-1.38,6.85L1.66,79.6c-.09,2.11-.23,4.93-.21,7L1.75,92c.25,1.94.55,4.53.88,6.45l-.38-2.3C-5.41,30,72.25-9.48,124,18.61c2.89-3.14,5.75-4.34,7.63-3.29" transform="translate(-1.44 -4.34)"/><path class="cls-9" d="M157.49,122.77c14.93-21.17,17.56-45.79,9.63-67l-2.09-5c-1.38-2.72-3.31-6.31-4.87-8.93L157,37.31c-1.37-1.71-3.18-4-4.63-5.64l-4-4.1c-1.65-1.46-3.84-3.44-5.55-4.82L138,19.2c-1.89-1.18-4.4-2.79-6.34-3.89-2.1-1.16-5.4.45-8.61,4.43l4.83,2.89c49.68,33.11,32.58,112.21-16.09,133.15a89.27,89.27,0,0,0,45.72-33" transform="translate(-1.44 -4.34)"/><path class="cls-20" d="M7.74,87.21c-11.2,22.36,31.52,89.66,92.81,67.87,26-9.23,36.68-29.82,34.2-31.55-.71-.5-.9-.63-11.56,5.34-9.48,5.31-34.79,16.67-65.1,7.61-12.45-3.72-34.9-14.29-45.43-43.33-2.44-6.72-2.93-6.92-3.37-7.1a1.09,1.09,0,0,0-.85.12,2.63,2.63,0,0,0-.7,1" transform="translate(-1.44 -4.34)"/><path class="cls-13" d="M131.65,15.32c-7.34-3.73-7.63-3.87-12.25-5.58l-6-1.93c-2-.49-4.66-1.2-6.69-1.62l-6.22-1c-2-.19-4.64-.49-6.63-.61l-6.33-.13c-1.95.1-4.55.16-6.5.32l-6.31.76c-1.89.36-4.42.77-6.3,1.2L62.29,8.32c-1.81.61-4.25,1.36-6,2l-5.87,2.44c-1.71.86-4,1.94-5.7,2.86l-5.46,3.24c-1.59,1.1-3.75,2.52-5.29,3.68l-4.92,4c-1.45,1.36-3.42,3.13-4.81,4.55L20,35.8c-1.27,1.64-3,3.79-4.23,5.48l-3.41,5.25L10.37,50l-2.6,5.37C7,57.28,5.95,59.85,5.27,61.82L3.68,67.28c-.43,2-1,4.78-1.38,6.85L1.66,79.6c-.08,2-.23,4.75-.22,6.78V85.8C2.86,27.58,71.8-10.32,124.39,18.21c2.76-2.84,5.45-3.89,7.26-2.89" transform="translate(-1.44 -4.34)"/><path class="cls-10" d="M157.49,122.77c14.93-21.17,17.56-45.79,9.63-67l-2.09-5c-1.38-2.72-3.31-6.31-4.87-8.93L157,37.31c-1.37-1.71-3.18-4-4.63-5.64l-4-4.1c-1.65-1.46-3.84-3.44-5.55-4.82L138,19.2c-1.89-1.18-4.4-2.79-6.34-3.89s-5.19.35-8.3,4.05l4.87,2.9c48.84,32.42,35.36,107.07-10.31,131.3a88.51,88.51,0,0,0,39.6-30.8" transform="translate(-1.44 -4.34)"/><path class="cls-14" d="M131.65,15.32c-7.34-3.73-7.63-3.87-12.25-5.58l-6-1.93c-2-.49-4.66-1.2-6.69-1.62l-6.22-1c-2-.19-4.64-.49-6.63-.61l-6.33-.13c-1.95.1-4.55.16-6.5.32l-6.31.76c-1.89.36-4.42.77-6.3,1.2L62.29,8.32c-1.81.61-4.25,1.36-6,2l-5.87,2.44c-1.71.86-4,1.94-5.7,2.86l-5.46,3.24c-1.59,1.1-3.75,2.52-5.29,3.68l-4.92,4c-1.45,1.36-3.42,3.13-4.81,4.55L20,35.8c-1.27,1.64-3,3.79-4.23,5.48l-3.41,5.25L10.37,50l-2.6,5.37C7,57.28,5.95,59.85,5.27,61.82L3.68,67.28c-.43,2-1,4.78-1.38,6.85l-.15,1,.25-1.67C12,20.49,76.11-8.65,124.81,17.79c2.61-2.52,5.12-3.42,6.84-2.47" transform="translate(-1.44 -4.34)"/><path class="cls-21" d="M8.62,92.34c-7.78,9.53,15.85,72.3,76.56,65.49,32.13-3.61,48.3-28.16,47.08-30.9a1.32,1.32,0,0,0-.85-.62c-2.3-.44-5.14,1.92-7.25,2.94-17,8.2-38.08,15.5-66.19,7.56-10.85-3.06-31-12-43.85-37.62-3.4-6.76-4-7.39-4.74-7.36a1.29,1.29,0,0,0-.75.52" transform="translate(-1.44 -4.34)"/><path class="cls-11" d="M157.49,122.77c14.93-21.17,17.56-45.79,9.63-67l-2.09-5c-1.38-2.72-3.31-6.31-4.87-8.93L157,37.31c-1.37-1.71-3.18-4-4.63-5.64l-4-4.1c-1.65-1.46-3.84-3.44-5.55-4.82L138,19.2c-1.89-1.18-4.4-2.79-6.34-3.89s-5,.25-8,3.68l4.9,2.91C175,52.63,165.34,125.08,123.72,151a87.75,87.75,0,0,0,33.77-28.24" transform="translate(-1.44 -4.34)"/><path class="cls-12" d="M157.49,122.77c14.93-21.17,17.56-45.79,9.63-67l-2.09-5c-1.38-2.72-3.31-6.31-4.87-8.93L157,37.31c-1.37-1.71-3.18-4-4.63-5.64l-4-4.1c-1.65-1.46-3.84-3.44-5.55-4.82L138,19.2c-1.89-1.18-4.4-2.79-6.34-3.89s-4.74.15-7.63,3.29L129,21.53c45.72,30.17,38.89,97.94.43,126.51a87,87,0,0,0,28.11-25.27" transform="translate(-1.44 -4.34)"/><path class="cls-15" d="M131.65,15.32c-7.34-3.73-7.63-3.87-12.25-5.58l-6-1.93c-2-.49-4.66-1.2-6.69-1.62l-6.22-1c-2-.19-4.64-.49-6.63-.61l-6.33-.13c-1.95.1-4.55.16-6.5.32l-6.31.76c-1.89.36-4.42.77-6.3,1.2L62.29,8.32c-1.81.61-4.25,1.36-6,2l-5.87,2.44c-1.71.86-4,1.94-5.7,2.86l-5.46,3.24c-1.59,1.1-3.75,2.52-5.29,3.68l-4.92,4c-1.45,1.36-3.42,3.13-4.81,4.55L20,35.8c-1.27,1.64-3,3.79-4.23,5.48l-3.41,5.25L10.37,50l-2.6,5.37C7,57.28,5.95,59.85,5.27,61.82l-.55,1.73,1-3.12c17.47-46.07,75.58-67,119.56-43.12,2.43-2.16,4.73-2.89,6.33-2" transform="translate(-1.44 -4.34)"/><path class="cls-22" d="M9.35,98.32c-3.06,7.62,5.63,35.45,30.12,49.07,27.35,15.21,50.7,10.63,65.48,4.1s26.49-19.94,24.41-22.39c-.4-.47-.82-1-6.83,1.65-18,7.84-38.35,14-64.68,6.35A73.79,73.79,0,0,1,16.34,105c-4.52-7.35-4.92-7.49-5.53-7.7a1.2,1.2,0,0,0-.89.08,2,2,0,0,0-.58.95" transform="translate(-1.44 -4.34)"/><path class="cls-13" d="M157.49,122.77c14.93-21.17,17.56-45.79,9.63-67l-2.09-5c-1.38-2.72-3.31-6.31-4.87-8.93L157,37.31c-1.37-1.71-3.18-4-4.63-5.64l-4-4.1c-1.65-1.46-3.84-3.44-5.55-4.82L138,19.2c-1.89-1.18-4.4-2.79-6.34-3.89s-4.5.05-7.26,2.89l5,2.94c44,28.88,39.8,93.08,5.62,123.43a86.22,86.22,0,0,0,22.49-21.8" transform="translate(-1.44 -4.34)"/><path class="cls-16" d="M131.65,15.32c-7.34-3.73-7.63-3.87-12.25-5.58l-6-1.93c-2-.49-4.66-1.2-6.69-1.62l-6.22-1c-2-.19-4.64-.49-6.63-.61l-6.33-.13c-1.95.1-4.55.16-6.5.32l-6.31.76c-1.89.36-4.42.77-6.3,1.2L62.29,8.32c-1.81.61-4.25,1.36-6,2l-5.87,2.44c-1.71.86-4,1.94-5.7,2.86l-5.46,3.24c-1.59,1.1-3.75,2.52-5.29,3.68l-4.92,4c-1.45,1.36-3.42,3.13-4.81,4.55L20,35.8c-1.27,1.64-3,3.79-4.23,5.48l-3.41,5.25L10.37,50l1.2-2.17C38.21,4.65,91.69-1.9,126,16.77c2.18-1.73,4.22-2.26,5.68-1.45" transform="translate(-1.44 -4.34)"/><path class="cls-14" d="M157.49,122.77c14.93-21.17,17.56-45.79,9.63-67l-2.09-5c-1.38-2.72-3.31-6.31-4.87-8.93L157,37.31c-1.37-1.71-3.18-4-4.63-5.64l-4-4.1c-1.65-1.46-3.84-3.44-5.55-4.82L138,19.2c-1.89-1.18-4.4-2.79-6.34-3.89-1.71-.95-4.23,0-6.84,2.47l4.55,2.66c42.9,27.74,42.08,89.17,11.32,120a85.46,85.46,0,0,0,16.81-17.67" transform="translate(-1.44 -4.34)"/><path class="cls-23" d="M11,102.93c-1.5,2.71.92,27,28.43,43.86,12.85,7.86,34.2,14,55.58,7.52,22.6-6.81,34.15-21.76,31.84-23.47-.59-.43-.88-.65-10.43,3-23.47,9.09-41.91,7.7-53.24,4.93-27.9-6.81-40.3-23.35-47.7-33.23-2.73-3.64-3.5-3.42-3.83-3.32s-.52.43-.65.68" transform="translate(-1.44 -4.34)"/><path class="cls-15" d="M157.49,122.77c14.93-21.17,17.56-45.79,9.63-67l-2.09-5c-1.38-2.72-3.31-6.31-4.87-8.93L157,37.31c-1.37-1.71-3.18-4-4.63-5.64l-4-4.1c-1.65-1.46-3.84-3.44-5.55-4.82L138,19.2c-1.89-1.18-4.4-2.79-6.34-3.89-1.6-.89-3.9-.16-6.33,2l5.09,3C171.2,47,172.62,104,146.63,135.3a84.7,84.7,0,0,0,10.87-12.52" transform="translate(-1.44 -4.34)"/><path class="cls-24" d="M12.9,107.67c-5,17.28,42.88,70.81,97.72,39.07,7.85-4.54,14.36-11.17,14.18-13.41a1.23,1.23,0,0,0-.54-.87c-.71-.37-.92-.3-6.45,1.52-12.56,4.15-31.53,10.42-54.71,5.06-25.51-5.9-38.81-21.36-44.49-28-3.25-3.77-4.26-4.23-4.87-4.16a1.2,1.2,0,0,0-.84.76" transform="translate(-1.44 -4.34)"/><path class="cls-16" d="M157.49,122.77c14.93-21.17,17.56-45.79,9.63-67l-2.09-5c-1.38-2.72-3.31-6.31-4.87-8.93L157,37.31c-1.37-1.71-3.18-4-4.63-5.64l-4-4.1c-1.65-1.46-3.84-3.44-5.55-4.82L138,19.2c-1.89-1.18-4.4-2.79-6.34-3.89-1.46-.81-3.49-.28-5.68,1.45h0C169.43,41.06,175.2,94,153.32,128.18q2.18-2.61,4.17-5.41" transform="translate(-1.44 -4.34)"/><path class="cls-25" d="M14.92,112.75C12.6,136,70.62,177.51,115.85,142.5c3.62-2.8,7.28-6.55,6.91-8a1.3,1.3,0,0,0-.77-.74c-.81-.27-.81-.27-9.43,2.36-7.91,2.42-26.45,8.08-48.36,3.39-5.87-1.26-23.72-5.08-41.82-23.3-1.55-1.56-5.19-5.23-6.41-5.16-.59,0-1,1.07-1.06,1.66" transform="translate(-1.44 -4.34)"/><path class="cls-26" d="M17.41,116.58c-.39,23.73,61.31,57.11,99.1,24.59,1.23-1.06,4.68-4.49,4.27-5.54-.47-1.21-4.25-.12-9,1.26-25.3,7.3-40.93,4.22-47.6,2.91-20.38-4-34.25-16-40.91-21.79-3.86-3.34-4.45-3.26-4.88-3.2a1.23,1.23,0,0,0-.74.53,2.69,2.69,0,0,0-.21,1.25" transform="translate(-1.44 -4.34)"/><path class="cls-27" d="M20.05,120.11c.53,7.34,15.25,27.27,41.36,32.56,27.62,5.59,49.78-6.53,55.65-12.92.72-.78,2.18-2.14,1.72-3.09-.39-.79-2.47-.56-8.28.92-12.33,3.16-27.1,6.21-46.41,2.41-9-1.77-22.87-6.42-37.7-18.51-4.4-3.59-5.21-3.4-5.56-3.32-.61.14-.83,1.32-.78,1.94" transform="translate(-1.44 -4.34)"/><path class="cls-28" d="M22.65,123.15c.06.23,7.26,23.57,44.95,29.82,20.91,3.47,46.12-7.54,49.16-14.21.15-.34.4-.91.21-1.22-.39-.65-.59-1-11.38,1.62a96.91,96.91,0,0,1-41.52,1c-15.85-3.1-26.2-10-38.17-18.08-.76-.51-1.91-1.48-2.79-1.23a1.16,1.16,0,0,0-.61.72,3.4,3.4,0,0,0,.17,1.56" transform="translate(-1.44 -4.34)"/><path class="cls-29" d="M24.89,124.19c-2.27,11,46.85,45.62,85.57,19.44,2.78-1.88,5.4-4.44,4.79-5.31-.43-.61-.59-.83-11.34,1.45-20.52,4.36-34.6,1.62-39.9.59a91.13,91.13,0,0,1-32.38-13.88c-5.18-3.49-5.92-3.19-6.2-3.08a1.19,1.19,0,0,0-.53.8" transform="translate(-1.44 -4.34)"/><path class="cls-30" d="M27,126.25c0,.18,6.85,19.34,40.61,25.59,15.92,2.95,36.46-2.8,44.19-9.9,1-1,2.33-2.14,1.73-2.89-.44-.56-.56-.54-6.94.51-13.51,2.22-24.17,4-37,1.93-15.34-2.43-23.49-6-38.77-14.8-.93-.54-2.35-1.72-3.35-1.3a1.13,1.13,0,0,0-.47.86" transform="translate(-1.44 -4.34)"/><path class="cls-31" d="M29.21,128.25c0,.16,8.15,17.81,38.39,23.15,16.17,2.85,35.09-2.27,42.61-8.85.72-.63,2.19-2.05,1.57-2.79s-2.36-.33-8.4.67c-7.51,1.24-20.07,3.32-33.82,1.24-6.78-1-18.12-2.74-37-13.35a5.59,5.59,0,0,0-3-1c-.27.13-.41.61-.41.91" transform="translate(-1.44 -4.34)"/><path class="cls-32" d="M31.12,129.83c0,1.92,11.78,17.58,37.79,21.39,21.05,3.08,40.07-6.16,41.37-9.8a1.18,1.18,0,0,0-.09-1.06c-.52-.52-.69-.5-9.49.78-6.3.92-18,2.62-31.17.71a94.07,94.07,0,0,1-29.36-9.29c-8.09-3.91-8.09-3.91-8.64-3.64a1.1,1.1,0,0,0-.41.91" transform="translate(-1.44 -4.34)"/><path class="cls-33" d="M33,131.3c.16,2.47,12.68,16.29,35.89,19.54,22.64,3.18,39.2-6.73,39.9-8.91a1.12,1.12,0,0,0-.17-1c-1-.87-3.07-.14-4.37,0-10.52,1.43-21.41,2.91-34.76,1a94,94,0,0,1-26.33-7.71c-6.08-2.8-9.14-4.21-9.77-3.91a1.06,1.06,0,0,0-.39.91" transform="translate(-1.44 -4.34)"/><path class="cls-34" d="M35,132.72c.23,2.69,13.85,15.15,33.93,17.84,22.5,3,37.79-6,38.42-8.13a1.08,1.08,0,0,0-.26-1c-.55-.44-2.45-.2-8.1.51-7.32.92-18.17,1.73-28.28.37a98,98,0,0,1-28.18-8c-5.06-2.19-6.59-2.85-7.16-2.56a1.05,1.05,0,0,0-.38.92" transform="translate(-1.44 -4.34)"/><path class="cls-35" d="M36.69,133.87c.21,2.58,14.27,14.06,32.22,16.4,21.71,2.83,36.46-5.52,36.93-7.38a1.09,1.09,0,0,0-.35-1c-.53-.4-3.24-.12-8.14.39-7.2.75-16.73,1.44-26.67.14a104,104,0,0,1-28.3-7.82c-1.52-.65-3.77-2.37-5.26-1.66a1,1,0,0,0-.42.89" transform="translate(-1.44 -4.34)"/><path class="cls-36" d="M40,137.05c18.68,20.11,62.9,13.1,64.35,6.28a1.09,1.09,0,0,0-.44-.94c-.09-.06-.09-.06-13.57.72a110.54,110.54,0,0,1-19.71-.5,111,111,0,0,1-26.65-7c-1.49-.61-3.67-2.22-5.14-1.57a1,1,0,0,0-.46.87c.07.79,1.08,1.51,1.62,2.09" transform="translate(-1.44 -4.34)"/><path class="cls-37" d="M41.24,137.31c16,19.14,60.77,12,61.71,6.41a1.11,1.11,0,0,0-.56-.91c-.62-.35-5.33,0-10.31.43a128.74,128.74,0,0,1-21.44-.47,113.07,113.07,0,0,1-21.75-5.11c-3.79-1.33-7.71-2.71-8.23-2.5a1,1,0,0,0-.5.84c0,.51.76.91,1.08,1.3" transform="translate(-1.44 -4.34)"/><path class="cls-38" d="M43.67,139c3,2.76,12.11,9.37,31.39,11.06,11.89,1,26.19-4,26.45-6,0-.33-.37-.74-.67-.89-.07,0-.07,0-10.44.3a117.39,117.39,0,0,1-19.79-.58,119.17,119.17,0,0,1-21.82-5,35.65,35.65,0,0,0-6.35-1.72,1,1,0,0,0-.55.82c.05.81,1.18,1.49,1.77,2" transform="translate(-1.44 -4.34)"/><path class="cls-39" d="M45.46,139.91c18.1,15.75,54.25,8.37,54.62,4.53,0-.35-.47-.72-.79-.87,0,0-.66-.26-8.86.14a125,125,0,0,1-19.83-.62,124.28,124.28,0,0,1-20.34-4.44,45.63,45.63,0,0,0-6.08-1.56,1,1,0,0,0-.65.78c0,.84,1.29,1.49,1.93,2" transform="translate(-1.44 -4.34)"/><path class="cls-40" d="M47.27,140.73c16.8,13.9,51.16,7.49,51.37,4,.1-1.67-3.83-.86-5.5-.87-.17,0-18-.13-22.56-.65a111.53,111.53,0,0,1-15.07-2.91C47,138,46,137.92,45.93,137.95c-.3.09-.75.42-.75.74,0,.88,1.41,1.49,2.09,2.05" transform="translate(-1.44 -4.34)"/><path class="cls-41" d="M47.93,140.5c9.63,8.8,36.71,12.64,49.22,4.56-1.34-1-1.34-1-13.12-.85a110.67,110.67,0,0,1-13.46-.81,115,115,0,0,1-15.11-2.87c-3.14-.83-7.75-1.77-7.76-1.76-.32.08-.84.37-.85.7s.75.73,1.09,1" transform="translate(-1.44 -4.34)"/><path class="cls-42" d="M50.91,142.24c10.35,7.13,33.46,10,44.67,3.11-1.38-.91-1.38-.91-8.72-1a123.79,123.79,0,0,1-17.55-1,119.31,119.31,0,0,1-12.54-2.32c-1.6-.41-7.24-1.52-7.25-1.52-.35.06-1,.3-1,.66-.06.94,1.61,1.5,2.39,2" transform="translate(-1.44 -4.34)"/><path class="cls-43" d="M52.76,142.93C61.3,148.55,83.18,152,94,145.61c-.42-.25-.91-.77-1.4-.82-7.35-.79-14.76-.24-22.1-1.07,0,0-5.45-.74-8.22-1.29-10.85-2.15-10.85-2.15-12.07-1.51.75.6,1.71,1.48,2.51,2" transform="translate(-1.44 -4.34)"/><path class="cls-44" d="M54.61,143.56c8.37,4.82,27.94,7.91,37.85,2.28-.46-.25-1-.77-1.54-.83-4.85-.51-9.73-.18-14.58-.61a116.34,116.34,0,0,1-12.8-1.56C53.37,141,53.37,141,52,141.59c.79.59,1.8,1.45,2.64,2" transform="translate(-1.44 -4.34)"/><path class="cls-45" d="M54.83,143c5.87,3.94,23.39,8.48,35.94,3.09a8,8,0,0,0-2-.87c-3.3-.35-7.75-.24-11.05-.53A190.34,190.34,0,0,1,57,142a6.82,6.82,0,0,0-3.26.18c.33.24.76.58,1.11.81" transform="translate(-1.44 -4.34)"/><path class="cls-46" d="M59.09,144.9c4,1.85,18,6.09,29.82,1.36a11.78,11.78,0,0,0-2.34-.83c-2.64-.27-6.18-.26-8.82-.48l-1.43-.14-5.84-.54c-5-.47-9.77-2.47-14.87-1.43,1,.62,2.39,1.54,3.49,2.06" transform="translate(-1.44 -4.34)"/><path class="cls-47" d="M61.37,145.46c.13.06,13.4,5.43,25.53,1a13.24,13.24,0,0,0-2.55-.87c-2-.2-4.61-.23-6.58-.38L76.31,145c-5.41-.53-10.77-1.5-16.18-1.95a10.6,10.6,0,0,0-2.35.4c1.08.59,2.46,1.48,3.59,2" transform="translate(-1.44 -4.34)"/><path class="cls-48" d="M61.86,145.09c4.89,2.17,15.58,4.13,23,1.47a18.73,18.73,0,0,0-3.81-.91c-19-1.88-19-1.88-21.09-1.55.57.3,1.3.74,1.89,1" transform="translate(-1.44 -4.34)"/><path class="cls-49" d="M69,146.88c5.46,1.18,7.27.85,13.29-.24-8.55-1.72-9.84-1.75-19.92-2,2,.69,4.6,1.7,6.63,2.22" transform="translate(-1.44 -4.34)"/><path class="cls-50" d="M69,146.29a30.69,30.69,0,0,0,9.57.35,48.22,48.22,0,0,0-12.31-1.19c.82.25,1.9.68,2.75.85" transform="translate(-1.44 -4.34)"/></g></g></g><g class="cls-2"><g class="cls-51"><g class="cls-2"><path class="cls-4" d="M131.65,15.32c5.73,3.45,13.57,8.17,20.74,16.35A75.57,75.57,0,0,1,167.12,55.8c-5.82-15.54-17.32-29.23-33.81-38.36a3.85,3.85,0,0,0-1.66-2.13" transform="translate(-1.44 -4.34)"/><path class="cls-4" d="M133.31,17.44a3.85,3.85,0,0,0-1.66-2.13h0c6.81,4.1,7.22,4.35,11.19,7.43l4.43,3.77c1.55,1.53,3.64,3.55,5.12,5.15L156,36c1.27,1.76,3,4.09,4.18,5.91l2.77,4.71c1.34,2.73,3,6.41,4.19,9.22-5.82-15.54-17.32-29.23-33.81-38.36" transform="translate(-1.44 -4.34)"/><path class="cls-5" d="M141.49,22.63c-3.35-2.45-7.76-5.17-8.3-5.49a3.68,3.68,0,0,0-1.54-1.82h0c6.81,4.1,7.22,4.35,11.19,7.43l4.43,3.77c1.55,1.53,3.64,3.55,5.12,5.15L156,36c1.27,1.76,3,4.09,4.18,5.91l2.77,4.71c1.34,2.73,3,6.41,4.19,9.22a72.19,72.19,0,0,0-25.63-33.17" transform="translate(-1.44 -4.34)"/><path class="cls-6" d="M148.7,28.53c-6.48-6-8.62-7.36-15.7-11.78a3.47,3.47,0,0,0-1.35-1.44l5.25,3.16c1.79,1.27,4.2,2.92,5.94,4.27l4.43,3.77c1.55,1.53,3.64,3.55,5.12,5.15L156,36c1.27,1.76,3,4.09,4.18,5.91l2.77,4.71c1.34,2.73,3,6.41,4.19,9.22A71.21,71.21,0,0,0,148.7,28.53" transform="translate(-1.44 -4.34)"/><path class="cls-7" d="M154,34a79.45,79.45,0,0,0-21.21-17.57,3.29,3.29,0,0,0-1.14-1.09l5.25,3.16c1.79,1.27,4.2,2.92,5.94,4.27l4.43,3.77c1.55,1.53,3.64,3.55,5.12,5.15L156,36c1.27,1.76,3,4.09,4.18,5.91l2.77,4.71c1.34,2.73,3,6.41,4.19,9.22A70.56,70.56,0,0,0,154,34" transform="translate(-1.44 -4.34)"/><path class="cls-8" d="M158.21,39.24c-3.62-5-10.35-14.3-25.65-23.14a3.14,3.14,0,0,0-.91-.78l5.25,3.16c1.79,1.27,4.2,2.92,5.94,4.27l4.43,3.77c1.55,1.53,3.64,3.55,5.12,5.15L156,36c1.27,1.76,3,4.09,4.18,5.91l2.77,4.71c1.34,2.73,3,6.41,4.19,9.22a70.08,70.08,0,0,0-8.91-16.56" transform="translate(-1.44 -4.34)"/><path class="cls-9" d="M161.66,44.46a78.67,78.67,0,0,0-29.35-28.65,3,3,0,0,0-.66-.5l5.25,3.16c1.79,1.27,4.2,2.92,5.94,4.27l4.43,3.77c1.55,1.53,3.64,3.55,5.12,5.15L156,36c1.27,1.76,3,4.09,4.18,5.91l2.77,4.71c1.34,2.73,3,6.41,4.19,9.22a69.71,69.71,0,0,0-5.46-11.34" transform="translate(-1.44 -4.34)"/><path class="cls-10" d="M164.52,49.74C157.49,35.21,146.86,24,132,15.57a2.93,2.93,0,0,0-.38-.25l5.25,3.16c1.79,1.27,4.2,2.92,5.94,4.27l4.43,3.77c1.55,1.53,3.64,3.55,5.12,5.15L156,36c1.27,1.76,3,4.09,4.18,5.91l2.77,4.71c1.34,2.73,3,6.41,4.19,9.22q-1.15-3.08-2.61-6.06" transform="translate(-1.44 -4.34)"/><path class="cls-11" d="M131.71,15.35l-.07,0,3.61,2.12-3.54-2.08" transform="translate(-1.44 -4.34)"/><path class="cls-11" d="M166.87,55.14l-.59-1.48.84,2.14-.25-.66" transform="translate(-1.44 -4.34)"/></g></g></g><g class="cls-2"><g class="cls-52"><g class="cls-2"><path class="cls-4" d="M134.06,19.46l-.75-2a80.74,80.74,0,0,1,8.18,5.19l.75,2a80.74,80.74,0,0,0-8.18-5.19" transform="translate(-1.44 -4.34)"/><path class="cls-5" d="M142.24,24.64l-.75-2a76.67,76.67,0,0,1,7.32,6l.75,2a76.67,76.67,0,0,0-7.32-6" transform="translate(-1.44 -4.34)"/><path class="cls-6" d="M149.56,30.64l-.75-2A73.92,73.92,0,0,1,154,34l.75,2a73.92,73.92,0,0,0-5.24-5.39" transform="translate(-1.44 -4.34)"/><path class="cls-7" d="M154.8,36,154,34q2.23,2.54,4.18,5.23l.75,2q-2-2.69-4.18-5.23" transform="translate(-1.44 -4.34)"/><path class="cls-8" d="M159,41.27l-.75-2q1.84,2.54,3.44,5.21l.75,2q-1.59-2.66-3.44-5.21" transform="translate(-1.44 -4.34)"/><path class="cls-9" d="M162.41,46.48l-.75-2q1.55,2.58,2.86,5.27l.75,2q-1.31-2.69-2.86-5.27" transform="translate(-1.44 -4.34)"/><path class="cls-10" d="M165.27,51.75l-.75-2q1.3,2.66,2.36,5.42l.75,2q-1.06-2.75-2.36-5.42" transform="translate(-1.44 -4.34)"/><path class="cls-11" d="M167.63,57.17l-.75-2,.25.65.75,2-.25-.65" transform="translate(-1.44 -4.34)"/></g></g></g><g class="cls-2"><g class="cls-53"><g class="cls-2"><path class="cls-4" d="M6.13,111.19C3.61,103.65-2.28,86,4.85,63.13,9.79,47.32,19.51,33.72,33.74,22.72a90.79,90.79,0,0,1,97-7.87l.86.47a3.85,3.85,0,0,1,1.66,2.13c-39-21.62-91.6-9.88-117.55,26.77C.82,65.38-1.81,90,6.13,111.19" transform="translate(-1.44 -4.34)"/><path class="cls-4" d="M133.31,17.44q-2.69-1.5-5.47-2.78l-1.77-.82c-7.64-3-9.94-3.93-17.1-5.37C74.62,1.42,36.59,14.79,15.76,44.21.82,65.38-1.81,90,6.13,111.19l-1.71-5.12c-.53-2.09-1.25-4.86-1.68-7l-.82-5.34c-.17-2.13-.41-5-.47-7.11l.11-5.48c.2-2.11.44-4.94.74-7L3.36,68.6c.56-2,1.26-4.77,1.91-6.78l2.07-5.49c.89-1.92,2-4.49,3-6.36l3.11-5.34,2.24-3.35,3.9-5.08c1.37-1.53,3.15-3.61,4.58-5.08l4.63-4.39c1.53-1.25,3.53-3,5.1-4.15l5.23-3.64c1.66-1,3.84-2.36,5.53-3.28l5.69-2.85c1.76-.73,4.09-1.77,5.88-2.45l6-2c1.85-.48,4.3-1.19,6.16-1.62l6.23-1.19c1.91-.23,4.46-.6,6.37-.77l6.31-.32c2,0,4.57,0,6.52.12l6.25.56c2,.32,4.63.68,6.6,1.07l6.07,1.45c2,.62,4.64,1.4,6.6,2.11l5.76,2.34c2,1,4.58,2.2,6.49,3.25a3.85,3.85,0,0,1,1.66,2.13" transform="translate(-1.44 -4.34)"/><path class="cls-5" d="M133.19,17.14c-7.61-3.94-19.12-9.89-38-10.48h-2.1c-29.66-.8-59.69,12.6-77.36,37.55C.82,65.38-1.81,90,6.13,111.19l-1.71-5.12c-.53-2.09-1.25-4.86-1.68-7l-.82-5.34c-.17-2.13-.41-5-.47-7.11l.11-5.48c.2-2.11.44-4.94.74-7L3.36,68.6c.56-2,1.26-4.77,1.91-6.78l2.07-5.49c.89-1.92,2-4.49,3-6.36l3.11-5.34,2.24-3.35,3.9-5.08c1.37-1.53,3.15-3.61,4.58-5.08l4.63-4.39c1.53-1.25,3.53-3,5.1-4.15l5.23-3.64c1.66-1,3.84-2.36,5.53-3.28l5.69-2.85c1.76-.73,4.09-1.77,5.88-2.45l6-2c1.85-.48,4.3-1.19,6.16-1.62l6.23-1.19c1.91-.23,4.46-.6,6.37-.77l6.31-.32c2,0,4.57,0,6.52.12l6.25.56c2,.32,4.63.68,6.6,1.07l6.07,1.45c2,.62,4.64,1.4,6.6,2.11l5.76,2.34c2,1,4.58,2.2,6.49,3.25a3.68,3.68,0,0,1,1.54,1.82" transform="translate(-1.44 -4.34)"/><path class="cls-6" d="M133,16.75h0C123.93,12.09,110.23,5,87.24,6.48l-4,.43C56.95,9,31.46,22,15.76,44.21.82,65.38-1.81,90,6.13,111.19h0a74.48,74.48,0,0,1-3.39-12.1l-.82-5.34c-.17-2.13-.41-5-.47-7.11l.11-5.48c.2-2.11.44-4.94.74-7L3.36,68.6c.56-2,1.26-4.77,1.91-6.78l2.07-5.49c.89-1.92,2-4.49,3-6.36l3.11-5.34,2.24-3.35,3.9-5.08c1.37-1.53,3.15-3.61,4.58-5.08l4.63-4.39c1.53-1.25,3.53-3,5.1-4.15l5.23-3.64c1.66-1,3.84-2.36,5.53-3.28l5.69-2.85c1.76-.73,4.09-1.77,5.88-2.45l6-2c1.85-.48,4.3-1.19,6.16-1.62l6.23-1.19c1.91-.23,4.46-.6,6.37-.77l6.31-.32c2,0,4.57,0,6.52.12l6.25.56c2,.32,4.63.68,6.6,1.07l6.07,1.45c2,.62,4.64,1.4,6.6,2.11l5.76,2.34c2,1,4.58,2.2,6.49,3.25A3.47,3.47,0,0,1,133,16.75" transform="translate(-1.44 -4.34)"/><path class="cls-7" d="M132.79,16.41c-8.08-4.14-27-13.83-53.47-9.37l-4.17.86c-23.36,3.86-45.3,16.42-59.39,36.31C.82,65.38-1.81,90,6.13,111.19l-1.71-5.12c-.53-2.09-1.25-4.86-1.68-7l-.82-5.34c-.17-2.13-.41-5-.47-7.11l.11-5.48c.2-2.11.44-4.94.74-7L3.36,68.6c.56-2,1.26-4.77,1.91-6.78l2.07-5.49c.89-1.92,2-4.49,3-6.36l3.11-5.34,2.24-3.35,3.9-5.08c1.37-1.53,3.15-3.61,4.58-5.08l4.63-4.39c1.53-1.25,3.53-3,5.1-4.15l5.23-3.64c1.66-1,3.84-2.36,5.53-3.28l5.69-2.85c1.76-.73,4.09-1.77,5.88-2.45l6-2c1.85-.48,4.3-1.19,6.16-1.62l6.23-1.19c1.91-.23,4.46-.6,6.37-.77l6.31-.32c2,0,4.57,0,6.52.12l6.25.56c2,.32,4.63.68,6.6,1.07l6.07,1.45c2,.62,4.64,1.4,6.6,2.11l5.76,2.34c2,1,4.58,2.2,6.49,3.25a3.29,3.29,0,0,1,1.14,1.09" transform="translate(-1.44 -4.34)"/><path class="cls-8" d="M132.56,16.09C112.44,5.44,93.61,3,71.5,8.3L68,9.36c-20.64,5.05-39.61,17-52.25,34.85C.82,65.38-1.81,90,6.13,111.19l-1.71-5.12c-.53-2.09-1.25-4.86-1.68-7l-.82-5.34c-.17-2.13-.41-5-.47-7.11l.11-5.48c.2-2.11.44-4.94.74-7L3.36,68.6c.56-2,1.26-4.77,1.91-6.78l2.07-5.49c.89-1.92,2-4.49,3-6.36l3.11-5.34,2.24-3.35,3.9-5.08c1.37-1.53,3.15-3.61,4.58-5.08l4.63-4.39c1.53-1.25,3.53-3,5.1-4.15l5.23-3.64c1.66-1,3.84-2.36,5.53-3.28l5.69-2.85c1.76-.73,4.09-1.77,5.88-2.45l6-2c1.85-.48,4.3-1.19,6.16-1.62l6.23-1.19c1.91-.23,4.46-.6,6.37-.77l6.31-.32c2,0,4.57,0,6.52.12l6.25.56c2,.32,4.63.68,6.6,1.07l6.07,1.45c2,.62,4.64,1.4,6.6,2.11l5.76,2.34c2,1,4.58,2.2,6.49,3.25a3.14,3.14,0,0,1,.91.78" transform="translate(-1.44 -4.34)"/><path class="cls-9" d="M132.31,15.81c-15.84-8.05-37.93-16-68.49-5.55l-2.35.95a89.25,89.25,0,0,0-45.71,33C.82,65.38-1.81,90,6.13,111.19l-1.71-5.12c-.53-2.09-1.25-4.86-1.68-7l-.82-5.34c-.17-2.13-.41-5-.47-7.11l.11-5.48c.2-2.11.44-4.94.74-7L3.36,68.6c.56-2,1.26-4.77,1.91-6.78l2.07-5.49c.89-1.92,2-4.49,3-6.36l3.11-5.34,2.24-3.35,3.9-5.08c1.37-1.53,3.15-3.61,4.58-5.08l4.63-4.39c1.53-1.25,3.53-3,5.1-4.15l5.23-3.64c1.66-1,3.84-2.36,5.53-3.28l5.69-2.85c1.76-.73,4.09-1.77,5.88-2.45l6-2c1.85-.48,4.3-1.19,6.16-1.62l6.23-1.19c1.91-.23,4.46-.6,6.37-.77l6.31-.32c2,0,4.57,0,6.52.12l6.25.56c2,.32,4.63.68,6.6,1.07l6.07,1.45c2,.62,4.64,1.4,6.6,2.11l5.76,2.34c2,1,4.58,2.2,6.49,3.25a3,3,0,0,1,.66.5" transform="translate(-1.44 -4.34)"/><path class="cls-10" d="M132,15.57C99.24-1,72.78,5,56.35,12.91l-1,.51A88.5,88.5,0,0,0,15.76,44.21C.82,65.38-1.81,90,6.13,111.19l-1.71-5.12c-.53-2.09-1.25-4.86-1.68-7l-.82-5.34c-.17-2.13-.41-5-.47-7.11l.11-5.48c.2-2.11.44-4.94.74-7L3.36,68.6c.56-2,1.26-4.77,1.91-6.78l2.07-5.49c.89-1.92,2-4.49,3-6.36l3.11-5.34,2.24-3.35,3.9-5.08c1.37-1.53,3.15-3.61,4.58-5.08l4.63-4.39c1.53-1.25,3.53-3,5.1-4.15l5.23-3.64c1.66-1,3.84-2.36,5.53-3.28l5.69-2.85c1.76-.73,4.09-1.77,5.88-2.45l6-2c1.85-.48,4.3-1.19,6.16-1.62l6.23-1.19c1.91-.23,4.46-.6,6.37-.77l6.31-.32c2,0,4.57,0,6.52.12l6.25.56c2,.32,4.63.68,6.6,1.07l6.07,1.45c2,.62,4.64,1.4,6.6,2.11l5.76,2.34c2,1,4.58,2.2,6.49,3.25a2.93,2.93,0,0,1,.38.25" transform="translate(-1.44 -4.34)"/><path class="cls-11" d="M131.71,15.35C98.53-1.4,71.57,4.85,54.8,13l-4.28,2.35-1,.59A87.74,87.74,0,0,0,15.76,44.21C.82,65.38-1.81,90,6.13,111.19l-1.71-5.12c-.53-2.09-1.25-4.86-1.68-7l-.82-5.34c-.17-2.13-.41-5-.47-7.11l.11-5.48c.2-2.11.44-4.94.74-7L3.36,68.6c.56-2,1.26-4.77,1.91-6.78l2.07-5.49c.89-1.92,2-4.49,3-6.36l3.11-5.34,2.24-3.35,3.9-5.08c1.37-1.53,3.15-3.61,4.58-5.08l4.63-4.39c1.53-1.25,3.53-3,5.1-4.15l5.23-3.64c1.66-1,3.84-2.36,5.53-3.28l5.69-2.85c1.76-.73,4.09-1.77,5.88-2.45l6-2c1.85-.48,4.3-1.19,6.16-1.62l6.23-1.19c1.91-.23,4.46-.6,6.37-.77l6.31-.32c2,0,4.57,0,6.52.12l6.25.56c2,.32,4.63.68,6.6,1.07l6.07,1.45c2,.62,4.64,1.4,6.6,2.11l5.76,2.34c2,1,4.58,2.2,6.49,3.25l.07,0" transform="translate(-1.44 -4.34)"/><path class="cls-12" d="M116.8,8.83c-25.53-7.31-48.52-4.94-68.32,7l-3.94,2.59-.68.49a87,87,0,0,0-28.1,25.27C.82,65.38-1.81,90,6.13,111.19l-1.71-5.12c-.53-2.09-1.25-4.86-1.68-7l-.82-5.34c-.17-2.13-.41-5-.47-7.11l.11-5.48c.2-2.11.44-4.94.74-7L3.36,68.6c.56-2,1.26-4.77,1.91-6.78l2.07-5.49c.89-1.92,2-4.49,3-6.36l3.11-5.34,2.24-3.35,3.9-5.08c1.37-1.53,3.15-3.61,4.58-5.08l4.63-4.39c1.53-1.25,3.53-3,5.1-4.15l5.23-3.64c1.66-1,3.84-2.36,5.53-3.28l5.69-2.85c1.76-.73,4.09-1.77,5.88-2.45l6-2c1.85-.48,4.3-1.19,6.16-1.62l6.23-1.19c1.91-.23,4.46-.6,6.37-.77l6.31-.32c2,0,4.57,0,6.52.12l6.25.56c2,.32,4.63.68,6.6,1.07l6.07,1.45c2,.62,4.64,1.4,6.6,2.11l-2.6-.9" transform="translate(-1.44 -4.34)"/><path class="cls-13" d="M101.38,5.27C92.66,4.4,66.13,1.74,42,19.47L38.38,22.3l-.13.11a86.21,86.21,0,0,0-22.49,21.8C.82,65.38-1.81,90,6.13,111.19l-1.71-5.12c-.53-2.09-1.25-4.86-1.68-7l-.82-5.34c-.17-2.13-.41-5-.47-7.11l.11-5.48c.2-2.11.44-4.94.74-7L3.36,68.6c.56-2,1.26-4.77,1.91-6.78l2.07-5.49c.89-1.92,2-4.49,3-6.36l3.11-5.34,2.24-3.35,3.9-5.08c1.37-1.53,3.15-3.61,4.58-5.08l4.63-4.39c1.53-1.25,3.53-3,5.1-4.15l5.23-3.64c1.66-1,3.84-2.36,5.53-3.28l5.69-2.85c1.76-.73,4.09-1.77,5.88-2.45l6-2c1.85-.48,4.3-1.19,6.16-1.62l6.23-1.19c1.91-.23,4.46-.6,6.37-.77l6.31-.32c2,0,4.57,0,6.52.12l6.25.56,5.59.88-4.35-.71" transform="translate(-1.44 -4.34)"/><path class="cls-14" d="M85.8,4.47C65.59,5.56,48.61,12.09,35.34,23.9l-2.77,2.64A85.45,85.45,0,0,0,15.76,44.21C.82,65.38-1.81,90,6.13,111.19l-1.71-5.12c-.53-2.09-1.25-4.86-1.68-7l-.82-5.34c-.17-2.13-.41-5-.47-7.11l.11-5.48c.2-2.11.44-4.94.74-7L3.36,68.6c.56-2,1.26-4.77,1.91-6.78l2.07-5.49c.89-1.92,2-4.49,3-6.36l3.11-5.34,2.24-3.35,3.9-5.08c1.37-1.53,3.15-3.61,4.58-5.08l4.63-4.39c1.53-1.25,3.53-3,5.1-4.15l5.23-3.64c1.66-1,3.84-2.36,5.53-3.28l5.69-2.85c1.76-.73,4.09-1.77,5.88-2.45l6-2c1.85-.48,4.3-1.19,6.16-1.62l6.23-1.19c1.91-.23,4.46-.6,6.37-.77l6.31-.32,4.67,0H85.8" transform="translate(-1.44 -4.34)"/><path class="cls-15" d="M72.34,5.92C54.63,9.39,40.08,17.11,29.09,28.85l-2.47,2.84A84.7,84.7,0,0,0,15.76,44.21C.82,65.38-1.81,90,6.13,111.19l-1.71-5.12c-.53-2.09-1.25-4.86-1.68-7l-.82-5.34c-.17-2.13-.41-5-.47-7.11l.11-5.48c.2-2.11.44-4.94.74-7L3.36,68.6c.56-2,1.26-4.77,1.91-6.78l2.07-5.49c.89-1.92,2-4.49,3-6.36l3.11-5.34,2.24-3.35,3.9-5.08c1.37-1.53,3.15-3.61,4.58-5.08l4.63-4.39c1.53-1.25,3.53-3,5.1-4.15l5.23-3.64c1.66-1,3.84-2.36,5.53-3.28l5.69-2.85c1.76-.73,4.09-1.77,5.88-2.45l6-2c1.85-.48,4.3-1.19,6.16-1.62l6.23-1.19,2.54-.36-4.88.76" transform="translate(-1.44 -4.34)"/><path class="cls-16" d="M55.54,10.64C44.86,15.24,33.49,21,22.19,35.47l-2.26,3.32h0q-2.18,2.61-4.17,5.41C.82,65.38-1.81,90,6.13,111.19l-1.71-5.12c-.53-2.09-1.25-4.86-1.68-7l-.82-5.34c-.17-2.13-.41-5-.47-7.11l.11-5.48c.2-2.11.44-4.94.74-7L3.36,68.6c.56-2,1.26-4.77,1.91-6.78l2.07-5.49c.89-1.92,2-4.49,3-6.36l3.11-5.34,2.24-3.35,3.9-5.08c1.37-1.53,3.15-3.61,4.58-5.08l4.63-4.39c1.53-1.25,3.53-3,5.1-4.15l5.23-3.64c1.66-1,3.84-2.36,5.53-3.28l5.69-2.85c1.76-.73,4.09-1.77,5.88-2.45l4.32-1.5c-1.51.54-3.54,1.23-5,1.79" transform="translate(-1.44 -4.34)"/></g></g></g><g class="cls-2"><g class="cls-54"><g class="cls-2"><path class="cls-16" d="M6.88,113.21l-.75-2C-1.81,90,.82,65.38,15.76,44.21q2.06-2.9,4.33-5.6l.75,2q-2.27,2.69-4.33,5.6C1.58,67.39-1.05,92,6.88,113.21" transform="translate(-1.44 -4.34)"/><path class="cls-15" d="M20.84,40.63l-.75-2a85.31,85.31,0,0,1,6.58-7l.75,2a85.31,85.31,0,0,0-6.58,7" transform="translate(-1.44 -4.34)"/><path class="cls-14" d="M27.42,33.66l-.75-2q2.86-2.71,5.94-5.13l.75,2Q30.28,31,27.42,33.66" transform="translate(-1.44 -4.34)"/><path class="cls-13" d="M33.36,28.53l-.75-2q2.75-2.17,5.66-4.12l.75,2q-2.91,1.94-5.66,4.12" transform="translate(-1.44 -4.34)"/><path class="cls-12" d="M39,24.41l-.75-2q2.73-1.83,5.59-3.45l.75,2Q41.76,22.58,39,24.41" transform="translate(-1.44 -4.34)"/><path class="cls-11" d="M44.62,21l-.75-2q2.78-1.58,5.66-3l.75,2q-2.88,1.38-5.66,3" transform="translate(-1.44 -4.34)"/><path class="cls-10" d="M50.27,18l-.75-2q2.87-1.38,5.83-2.56l.75,2q-3,1.18-5.83,2.56" transform="translate(-1.44 -4.34)"/><path class="cls-9" d="M56.1,15.43l-.75-2q3-1.2,6.11-2.2l.75,2q-3.09,1-6.11,2.2" transform="translate(-1.44 -4.34)"/><path class="cls-8" d="M62.21,13.23l-.75-2q3.22-1,6.51-1.85l.75,2q-3.29.81-6.51,1.85" transform="translate(-1.44 -4.34)"/><path class="cls-7" d="M68.73,11.39l-.75-2q3.52-.86,7.1-1.46l.75,2q-3.58.59-7.1,1.46" transform="translate(-1.44 -4.34)"/><path class="cls-6" d="M75.83,9.93l-.75-2q4-.67,8.05-1l.75,2q-4,.32-8.05,1" transform="translate(-1.44 -4.34)"/><path class="cls-5" d="M83.88,8.94l-.75-2a93.93,93.93,0,0,1,10-.26l.75,2a93.93,93.93,0,0,0-10,.26" transform="translate(-1.44 -4.34)"/><path class="cls-4" d="M93.84,8.67l-.75-2a91.08,91.08,0,0,1,15.38,1.72l.75,2A91.08,91.08,0,0,0,93.84,8.67" transform="translate(-1.44 -4.34)"/><path class="cls-18" d="M109.22,10.39l-.75-2a86.32,86.32,0,0,1,19.68,6.43l.75,2a86.32,86.32,0,0,0-19.68-6.43" transform="translate(-1.44 -4.34)"/><path class="cls-4" d="M128.89,16.82l-.75-2q2.62,1.22,5.17,2.64l.75,2q-2.55-1.41-5.17-2.64" transform="translate(-1.44 -4.34)"/></g></g></g><g class="cls-2"><g class="cls-55"><g class="cls-2"><path class="cls-37" d="M167.88,57.82c2.73,8.18,8.41,25.21,1.27,48.06-4.94,15.81-14.65,29.41-28.89,40.4a90.8,90.8,0,0,1-97.05,7.88,79.85,79.85,0,0,1-21.6-16.82A75.48,75.48,0,0,1,6.88,113.21c-7.94-21.19-5.31-45.81,9.63-67C42.47,9.57,95.1-2.16,134.06,19.46c1.67,4.45-.71,13.34-5.31,19.85C96.38,21.36,53,31.1,31.78,61.07S19.66,129.89,52,147.84s75.8,8.19,97-21.78,12.11-68.81-20.27-86.76c4.6-6.51,7-15.39,5.31-19.85,16.49,9.13,28,22.82,33.81,38.36" transform="translate(-1.44 -4.34)"/><path class="cls-37" d="M132.78,31.66c-17-18.85-60.61-13-61.72-6.38a1.11,1.11,0,0,0,.56.91c.62.35,5.33,0,10.31-.43a128.81,128.81,0,0,1,21.44.47c3,.37,3,.37,28.59,7.43a33.78,33.78,0,0,1-3.2,5.65C96.38,21.36,53,31.1,31.78,61.07S19.66,129.89,52,147.84s75.8,8.19,97-21.78,12.11-68.81-20.27-86.76a33.78,33.78,0,0,0,3.2-5.65h0c.52.12,1.28.65,1.74.39a1,1,0,0,0,.32-.95c-.11-.56-.87-1-1.24-1.44,1.77-4.69,2.35-9.35,1.29-12.2,16.49,9.13,28,22.82,33.81,38.36h0a74.48,74.48,0,0,1,3.39,12.1l.82,5.34c.17,2.13.41,5,.47,7.11l-.11,5.48c-.2,2.11-.44,4.94-.74,7l-1.07,5.52c-.56,2-1.26,4.77-1.91,6.78l-2.07,5.49c-.89,1.91-2,4.49-3,6.36l-3.11,5.34-2.24,3.34-3.9,5.08c-1.37,1.53-3.15,3.61-4.58,5.08l-4.63,4.39c-1.53,1.25-3.53,3-5.1,4.15l-5.23,3.64c-1.66,1-3.84,2.36-5.53,3.28l-5.69,2.85c-1.76.73-4.09,1.78-5.88,2.45l-6,2c-1.85.49-4.3,1.2-6.16,1.62l-6.23,1.19c-1.91.23-4.46.6-6.37.77l-6.31.32c-2,0-4.57,0-6.52-.12l-6.26-.56c-2-.32-4.63-.68-6.6-1.07l-6.07-1.45c-2-.62-4.64-1.4-6.6-2.11l-5.76-2.34c-2-1-4.58-2.2-6.49-3.25l-5.25-3.16c-1.79-1.27-4.2-2.92-5.94-4.27l-4.43-3.77c-1.55-1.53-3.64-3.55-5.12-5.15L18,133.05c-1.27-1.76-3-4.1-4.18-5.91l-2.77-4.71c-1.34-2.72-3-6.41-4.19-9.22-7.94-21.19-5.31-45.81,9.63-67C42.47,9.57,95.1-2.16,134.06,19.46c1.07,2.85.48,7.51-1.29,12.2" transform="translate(-1.44 -4.34)"/><path class="cls-36" d="M133,31.08c-1,.28-1.86-1.52-2.65-2.18-22-18-59.66-7.83-60.71-3.24a1.08,1.08,0,0,0,.44.94c.09.06.09.06,13.57-.72a103.16,103.16,0,0,1,48.09,8.26,33.57,33.57,0,0,1-3,5.16C96.38,21.36,53,31.1,31.78,61.07S19.66,129.89,52,147.84s75.8,8.19,97-21.78,12.11-68.81-20.27-86.76a33.57,33.57,0,0,0,3-5.16l.44.17c1,.22,2.33,1.2,3.19.73a1,1,0,0,0,.35-.94c-.2-1.21-1.54-3.36-2.72-3,1.6-4.49,2.1-8.89,1.08-11.62,16.49,9.13,28,22.82,33.81,38.36h0a74.48,74.48,0,0,1,3.39,12.1l.82,5.34c.17,2.13.41,5,.47,7.11l-.11,5.48c-.2,2.11-.44,4.94-.74,7l-1.07,5.52c-.56,2-1.26,4.77-1.91,6.78l-2.07,5.49c-.89,1.91-2,4.49-3,6.36l-3.11,5.34-2.24,3.34-3.9,5.08c-1.37,1.53-3.15,3.61-4.58,5.08l-4.63,4.39c-1.53,1.25-3.53,3-5.1,4.15l-5.23,3.64c-1.66,1-3.84,2.36-5.53,3.28l-5.69,2.85c-1.76.73-4.09,1.78-5.88,2.45l-6,2c-1.85.49-4.3,1.2-6.16,1.62l-6.23,1.19c-1.91.23-4.46.6-6.37.77l-6.31.32c-2,0-4.57,0-6.52-.12l-6.26-.56c-2-.32-4.63-.68-6.6-1.07l-6.07-1.45c-2-.62-4.64-1.4-6.6-2.11l-5.76-2.34c-2-1-4.58-2.2-6.49-3.25l-5.25-3.16c-1.79-1.27-4.2-2.92-5.94-4.27l-4.43-3.77c-1.55-1.53-3.64-3.55-5.12-5.15L18,133.05c-1.27-1.76-3-4.1-4.18-5.91l-2.77-4.71c-1.34-2.72-3-6.41-4.19-9.22-7.94-21.19-5.31-45.81,9.63-67C42.47,9.57,95.1-2.16,134.06,19.46c1,2.73.52,7.13-1.08,11.62" transform="translate(-1.44 -4.34)"/><path class="cls-35" d="M133.15,30.6c-26-21.87-63.84-9-65-4.5a1.09,1.09,0,0,0,.35,1c.53.4,3.24.12,8.15-.39,10.5-1.09,30-3.12,54.94,7.75a33.43,33.43,0,0,1-2.84,4.88C96.38,21.36,53,31.1,31.78,61.07S19.66,129.89,52,147.84s75.8,8.19,97-21.78,12.11-68.81-20.27-86.76a33.43,33.43,0,0,0,2.84-4.88h0c1.57.64,3.89,2.45,5.39,1.66a1,1,0,0,0,.37-.92c-.21-1.85-2.83-3.31-4.21-4.56,1.47-4.33,1.9-8.51.91-11.15,16.49,9.13,28,22.82,33.81,38.36h0a74.48,74.48,0,0,1,3.39,12.1l.82,5.34c.17,2.13.41,5,.47,7.11l-.11,5.48c-.2,2.11-.44,4.94-.74,7l-1.07,5.52c-.56,2-1.26,4.77-1.91,6.78l-2.07,5.49c-.89,1.91-2,4.49-3,6.36l-3.11,5.34-2.24,3.34-3.9,5.08c-1.37,1.53-3.15,3.61-4.58,5.08l-4.63,4.39c-1.53,1.25-3.53,3-5.1,4.15l-5.23,3.64c-1.66,1-3.84,2.36-5.53,3.28l-5.69,2.85c-1.76.73-4.09,1.78-5.88,2.45l-6,2c-1.85.49-4.3,1.2-6.16,1.62l-6.23,1.19c-1.91.23-4.46.6-6.37.77l-6.31.32c-2,0-4.57,0-6.52-.12l-6.26-.56c-2-.32-4.63-.68-6.6-1.07l-6.07-1.45c-2-.62-4.64-1.4-6.6-2.11l-5.76-2.34c-2-1-4.58-2.2-6.49-3.25l-5.25-3.16c-1.79-1.27-4.2-2.92-5.94-4.27l-4.43-3.77c-1.55-1.53-3.64-3.55-5.12-5.15L18,133.05c-1.27-1.76-3-4.1-4.18-5.91l-2.77-4.71c-1.34-2.72-3-6.41-4.19-9.22-7.94-21.19-5.31-45.81,9.63-67C42.47,9.57,95.1-2.16,134.06,19.46c1,2.63.56,6.82-.91,11.15" transform="translate(-1.44 -4.34)"/><path class="cls-34" d="M133.31,30.13c-1.2.39-2.37-1.74-3.38-2.48-23.72-17.4-61.65-6.31-63.26-1.08a1.08,1.08,0,0,0,.26,1c1.89,1.53,5.68-.23,8.1-.51,22.43-2.59,36.67-.66,56.43,7.65a33.29,33.29,0,0,1-2.71,4.6C96.38,21.36,53,31.1,31.78,61.07S19.66,129.89,52,147.84s75.8,8.19,97-21.78,12.11-68.81-20.27-86.76a33.29,33.29,0,0,0,2.71-4.6L136,36.62c.68.15,1.61.69,2.27.49a1.21,1.21,0,0,0,.78-.82c.09-.85-5-6.38-5.71-6.16,1.34-4.16,1.7-8.13.75-10.67,16.49,9.13,28,22.82,33.81,38.36h0a74.48,74.48,0,0,1,3.39,12.1l.82,5.34c.17,2.13.41,5,.47,7.11l-.11,5.48c-.2,2.11-.44,4.94-.74,7l-1.07,5.52c-.56,2-1.26,4.77-1.91,6.78l-2.07,5.49c-.89,1.91-2,4.49-3,6.36l-3.11,5.34-2.24,3.34-3.9,5.08c-1.37,1.53-3.15,3.61-4.58,5.08l-4.63,4.39c-1.53,1.25-3.53,3-5.1,4.15l-5.23,3.64c-1.66,1-3.84,2.36-5.53,3.28l-5.69,2.85c-1.76.73-4.09,1.78-5.88,2.45l-6,2c-1.85.49-4.3,1.2-6.16,1.62l-6.23,1.19c-1.91.23-4.46.6-6.37.77l-6.31.32c-2,0-4.57,0-6.52-.12l-6.26-.56c-2-.32-4.63-.68-6.6-1.07l-6.07-1.45c-2-.62-4.64-1.4-6.6-2.11l-5.76-2.34c-2-1-4.58-2.2-6.49-3.25l-5.25-3.16c-1.79-1.27-4.2-2.92-5.94-4.27l-4.43-3.77c-1.55-1.53-3.64-3.55-5.12-5.15L18,133.05c-1.27-1.76-3-4.1-4.18-5.91l-2.77-4.71c-1.34-2.72-3-6.41-4.19-9.22-7.94-21.19-5.31-45.81,9.63-67C42.47,9.57,95.1-2.16,134.06,19.46c1,2.54.59,6.52-.75,10.67" transform="translate(-1.44 -4.34)"/><path class="cls-33" d="M133.46,29.66h0c-30-22.78-66.87-6.9-68.27-2.59a1.12,1.12,0,0,0,.17,1c1,.88,3.07.14,4.38,0,12.52-1.7,20.24-2.6,33.55-1.21,8.6.9,18,3.64,28,8.14a33.14,33.14,0,0,1-2.57,4.32C96.38,21.36,53,31.1,31.78,61.07S19.66,129.89,52,147.84s75.8,8.19,97-21.78,12.11-68.81-20.27-86.76A33.14,33.14,0,0,0,131.33,35h0c8.93,3.8,8.93,3.8,9.27,3.63a1.06,1.06,0,0,0,.39-.91s-.7-2.7-7.53-8c1.22-4,1.52-7.76.6-10.2,16.49,9.13,28,22.82,33.81,38.36h0a74.48,74.48,0,0,1,3.39,12.1l.82,5.34c.17,2.13.41,5,.47,7.11l-.11,5.48c-.2,2.11-.44,4.94-.74,7l-1.07,5.52c-.56,2-1.26,4.77-1.91,6.78l-2.07,5.49c-.89,1.91-2,4.49-3,6.36l-3.11,5.34-2.24,3.34-3.9,5.08c-1.37,1.53-3.15,3.61-4.58,5.08l-4.63,4.39c-1.53,1.25-3.53,3-5.1,4.15l-5.23,3.64c-1.66,1-3.84,2.36-5.53,3.28l-5.69,2.85c-1.76.73-4.09,1.78-5.88,2.45l-6,2c-1.85.49-4.3,1.2-6.16,1.62l-6.23,1.19c-1.91.23-4.46.6-6.37.77l-6.31.32c-2,0-4.57,0-6.52-.12l-6.26-.56c-2-.32-4.63-.68-6.6-1.07l-6.07-1.45c-2-.62-4.64-1.4-6.6-2.11l-5.76-2.34c-2-1-4.58-2.2-6.49-3.25l-5.25-3.16c-1.79-1.27-4.2-2.92-5.94-4.27l-4.43-3.77c-1.55-1.53-3.64-3.55-5.12-5.15L18,133.05c-1.27-1.76-3-4.1-4.18-5.91l-2.77-4.71c-1.34-2.72-3-6.41-4.19-9.22-7.94-21.19-5.31-45.81,9.63-67C42.47,9.57,95.1-2.16,134.06,19.46c.91,2.44.61,6.22-.6,10.2" transform="translate(-1.44 -4.34)"/><path class="cls-32" d="M133.62,29.12c-1.2.43-2.44-1.68-3.48-2.41C103.6,8.39,66,21.07,63.72,27.58a1.18,1.18,0,0,0,.09,1.06c.52.52.69.5,9.49-.78,10.59-1.54,32.61-4.74,57.92,7.35a33,33,0,0,1-2.46,4.1C96.38,21.36,53,31.1,31.78,61.07S19.66,129.89,52,147.84s75.8,8.19,97-21.78,12.11-68.81-20.27-86.76a33,33,0,0,0,2.46-4.1l2.85,1.37c7.95,3.72,7.95,3.72,8.41,3.5a1.1,1.1,0,0,0,.41-.91c0-1.62-8.16-10.44-9.27-10,1.08-3.79,1.32-7.34.45-9.67,16.49,9.13,28,22.82,33.81,38.36h0a74.48,74.48,0,0,1,3.39,12.1l.82,5.34c.17,2.13.41,5,.47,7.11l-.11,5.48c-.2,2.11-.44,4.94-.74,7l-1.07,5.52c-.56,2-1.26,4.77-1.91,6.78l-2.07,5.49c-.89,1.91-2,4.49-3,6.36l-3.11,5.34-2.24,3.34-3.9,5.08c-1.37,1.53-3.15,3.61-4.58,5.08l-4.63,4.39c-1.53,1.25-3.53,3-5.1,4.15l-5.23,3.64c-1.66,1-3.84,2.36-5.53,3.28l-5.69,2.85c-1.76.73-4.09,1.78-5.88,2.45l-6,2c-1.85.49-4.3,1.2-6.16,1.62l-6.23,1.19c-1.91.23-4.46.6-6.37.77l-6.31.32c-2,0-4.57,0-6.52-.12l-6.26-.56c-2-.32-4.63-.68-6.6-1.07l-6.07-1.45c-2-.62-4.64-1.4-6.6-2.11l-5.76-2.34c-2-1-4.58-2.2-6.49-3.25l-5.25-3.16c-1.79-1.27-4.2-2.92-5.94-4.27l-4.43-3.77c-1.55-1.53-3.64-3.55-5.12-5.15L18,133.05c-1.27-1.76-3-4.1-4.18-5.91l-2.77-4.71c-1.34-2.72-3-6.41-4.19-9.22-7.94-21.19-5.31-45.81,9.63-67C42.47,9.57,95.1-2.16,134.06,19.46c.87,2.33.64,5.88-.45,9.67" transform="translate(-1.44 -4.34)"/><path class="cls-31" d="M133.77,28.56c-40.21-26.19-72.47-.38-71.56.68,1.31,1.53,4.72-.13,6.71-.44,14.59-2.29,36.64-5.74,62.17,6.63a32.89,32.89,0,0,1-2.34,3.87C96.38,21.36,53,31.1,31.78,61.07S19.66,129.89,52,147.84s75.8,8.19,97-21.78,12.11-68.81-20.27-86.76a32.89,32.89,0,0,0,2.34-3.87L136,37.88c6.82,3.8,7.29,3.71,7.76,3.62s1-.36,1.07-.73c0,0-1-4.86-11-12.2.95-3.57,1.12-6.89.29-9.1,16.49,9.13,28,22.82,33.81,38.36h0a74.48,74.48,0,0,1,3.39,12.1l.82,5.34c.17,2.13.41,5,.47,7.11l-.11,5.48c-.2,2.11-.44,4.94-.74,7l-1.07,5.52c-.56,2-1.26,4.77-1.91,6.78l-2.07,5.49c-.89,1.91-2,4.49-3,6.36l-3.11,5.34-2.24,3.34-3.9,5.08c-1.37,1.53-3.15,3.61-4.58,5.08l-4.63,4.39c-1.53,1.25-3.53,3-5.1,4.15l-5.23,3.64c-1.66,1-3.84,2.36-5.53,3.28l-5.69,2.85c-1.76.73-4.09,1.78-5.88,2.45l-6,2c-1.85.49-4.3,1.2-6.16,1.62l-6.23,1.19c-1.91.23-4.46.6-6.37.77l-6.31.32c-2,0-4.57,0-6.52-.12l-6.26-.56c-2-.32-4.63-.68-6.6-1.07l-6.07-1.45c-2-.62-4.64-1.4-6.6-2.11l-5.76-2.34c-2-1-4.58-2.2-6.49-3.25l-5.25-3.16c-1.79-1.27-4.2-2.92-5.94-4.27l-4.43-3.77c-1.55-1.53-3.64-3.55-5.12-5.15L18,133.05c-1.27-1.76-3-4.1-4.18-5.91l-2.77-4.71c-1.34-2.72-3-6.41-4.19-9.22-7.94-21.19-5.31-45.81,9.63-67C42.47,9.57,95.1-2.16,134.06,19.46c.83,2.22.66,5.53-.29,9.1" transform="translate(-1.44 -4.34)"/><path class="cls-30" d="M133.95,27.86C96.07,2,59.57,28.81,60.48,29.94c.52.66,1.72.44,9.54-1,10.42-1.89,34.81-6.32,61,6.69a32.75,32.75,0,0,1-2.23,3.65C96.38,21.36,53,31.1,31.78,61.07S19.66,129.89,52,147.84s75.8,8.19,97-21.78,12.11-68.81-20.27-86.76A32.75,32.75,0,0,0,131,35.66l4.9,2.52c9.95,5.73,9.95,5.73,10.65,5.44a1.13,1.13,0,0,0,.48-.86s-.76-5.89-13.06-14.89c.79-3.3.89-6.33.11-8.4,16.49,9.13,28,22.82,33.81,38.36h0a74.48,74.48,0,0,1,3.39,12.1l.82,5.34c.17,2.13.41,5,.47,7.11l-.11,5.48c-.2,2.11-.44,4.94-.74,7l-1.07,5.52c-.56,2-1.26,4.77-1.91,6.78l-2.07,5.49c-.89,1.91-2,4.49-3,6.36l-3.11,5.34-2.24,3.34-3.9,5.08c-1.37,1.53-3.15,3.61-4.58,5.08l-4.63,4.39c-1.53,1.25-3.53,3-5.1,4.15l-5.23,3.64c-1.66,1-3.84,2.36-5.53,3.28l-5.69,2.85c-1.76.73-4.09,1.78-5.88,2.45l-6,2c-1.85.49-4.3,1.2-6.16,1.62l-6.23,1.19c-1.91.23-4.46.6-6.37.77l-6.31.32c-2,0-4.57,0-6.52-.12l-6.26-.56c-2-.32-4.63-.68-6.6-1.07l-6.07-1.45c-2-.62-4.64-1.4-6.6-2.11l-5.76-2.34c-2-1-4.58-2.2-6.49-3.25l-5.25-3.16c-1.79-1.27-4.2-2.92-5.94-4.27l-4.43-3.77c-1.55-1.53-3.64-3.55-5.12-5.15L18,133.05c-1.27-1.76-3-4.1-4.18-5.91l-2.77-4.71c-1.34-2.72-3-6.41-4.19-9.22-7.94-21.19-5.31-45.81,9.63-67C42.47,9.57,95.1-2.16,134.06,19.46c.78,2.07.68,5.1-.11,8.4" transform="translate(-1.44 -4.34)"/><path class="cls-29" d="M134.13,27c-42-27-76.05,2.69-75.38,3.64.43.61.59.83,11.34-1.45,22.13-4.7,42.58-2.46,60.77,6.64a32.61,32.61,0,0,1-2.11,3.43C96.38,21.36,53,31.1,31.78,61.07S19.66,129.89,52,147.84s75.8,8.19,97-21.78,12.11-68.81-20.27-86.76a32.61,32.61,0,0,0,2.11-3.43h0a102.87,102.87,0,0,1,10.57,6c2.77,1.87,6.25,4,7.14,3.71,1.51-.53-1.09-9.07-14.44-18.57a14.42,14.42,0,0,0-.07-7.59c16.49,9.13,28,22.82,33.81,38.36h0a74.48,74.48,0,0,1,3.39,12.1l.82,5.34c.17,2.13.41,5,.47,7.11l-.11,5.48c-.2,2.11-.44,4.94-.74,7l-1.07,5.52c-.56,2-1.26,4.77-1.91,6.78l-2.07,5.49c-.89,1.91-2,4.49-3,6.36l-3.11,5.34-2.24,3.34-3.9,5.08c-1.37,1.53-3.15,3.61-4.58,5.08l-4.63,4.39c-1.53,1.25-3.53,3-5.1,4.15l-5.23,3.64c-1.66,1-3.84,2.36-5.53,3.28l-5.69,2.85c-1.76.73-4.09,1.78-5.88,2.45l-6,2c-1.85.49-4.3,1.2-6.16,1.62l-6.23,1.19c-1.91.23-4.46.6-6.37.77l-6.31.32c-2,0-4.57,0-6.52-.12l-6.26-.56c-2-.32-4.63-.68-6.6-1.07l-6.07-1.45c-2-.62-4.64-1.4-6.6-2.11l-5.76-2.34c-2-1-4.58-2.2-6.49-3.25l-5.25-3.16c-1.79-1.27-4.2-2.92-5.94-4.27l-4.43-3.77c-1.55-1.53-3.64-3.55-5.12-5.15L18,133.05c-1.27-1.76-3-4.1-4.18-5.91l-2.77-4.71c-1.34-2.72-3-6.41-4.19-9.22-7.94-21.19-5.31-45.81,9.63-67C42.47,9.57,95.1-2.16,134.06,19.46a14.42,14.42,0,0,1,.07,7.59" transform="translate(-1.44 -4.34)"/><path class="cls-28" d="M134.3,26.13C92.44.26,56.53,30.62,57,31.46c.37.62.37.62,13.13-2,9.23-1.86,33.75-6.81,60.56,6.6a32.47,32.47,0,0,1-2,3.2C96.38,21.36,53,31.1,31.78,61.07S19.66,129.89,52,147.84s75.8,8.19,97-21.78,12.11-68.81-20.27-86.76a32.47,32.47,0,0,0,2-3.2l4.95,2.7c3.08,1.83,3.08,1.83,12.43,8.1.76.51,1.92,1.49,2.8,1.23a1.16,1.16,0,0,0,.61-.72c0-.08-.36-9.47-17.22-21.29a13.43,13.43,0,0,0-.24-6.67c16.49,9.13,28,22.82,33.81,38.36h0a74.48,74.48,0,0,1,3.39,12.1l.82,5.34c.17,2.13.41,5,.47,7.11l-.11,5.48c-.2,2.11-.44,4.94-.74,7l-1.07,5.52c-.56,2-1.26,4.77-1.91,6.78l-2.07,5.49c-.89,1.91-2,4.49-3,6.36l-3.11,5.34-2.24,3.34-3.9,5.08c-1.37,1.53-3.15,3.61-4.58,5.08l-4.63,4.39c-1.53,1.25-3.53,3-5.1,4.15l-5.23,3.64c-1.66,1-3.84,2.36-5.53,3.28l-5.69,2.85c-1.76.73-4.09,1.78-5.88,2.45l-6,2c-1.85.49-4.3,1.2-6.16,1.62l-6.23,1.19c-1.91.23-4.46.6-6.37.77l-6.31.32c-2,0-4.57,0-6.52-.12l-6.26-.56c-2-.32-4.63-.68-6.6-1.07l-6.07-1.45c-2-.62-4.64-1.4-6.6-2.11l-5.76-2.34c-2-1-4.58-2.2-6.49-3.25l-5.25-3.16c-1.79-1.27-4.2-2.92-5.94-4.27l-4.43-3.77c-1.55-1.53-3.64-3.55-5.12-5.15L18,133.05c-1.27-1.76-3-4.1-4.18-5.91l-2.77-4.71c-1.34-2.72-3-6.41-4.19-9.22-7.94-21.19-5.31-45.81,9.63-67C42.47,9.57,95.1-2.16,134.06,19.46a13.43,13.43,0,0,1,.24,6.67" transform="translate(-1.44 -4.34)"/><path class="cls-27" d="M134.44,25.2c-43.81-26.61-79.6,6.36-79.22,7.15s2.47.56,8.28-.92c11.41-2.92,38.13-9.75,67.12,4.91a32.31,32.31,0,0,1-1.86,3C96.38,21.36,53,31.1,31.78,61.07S19.66,129.89,52,147.84s75.8,8.19,97-21.78,12.11-68.81-20.27-86.76a32.31,32.31,0,0,0,1.86-3l4.94,2.74a122.69,122.69,0,0,1,10.72,7.36c5.69,4.63,6.53,4.47,6.89,4.4,1.73-.33.56-12.31-18.72-25.64a12.42,12.42,0,0,0-.38-5.74c16.49,9.13,28,22.82,33.81,38.36h0a74.48,74.48,0,0,1,3.39,12.1l.82,5.34c.17,2.13.41,5,.47,7.11l-.11,5.48c-.2,2.11-.44,4.94-.74,7l-1.07,5.52c-.56,2-1.26,4.77-1.91,6.78l-2.07,5.49c-.89,1.91-2,4.49-3,6.36l-3.11,5.34-2.24,3.34-3.9,5.08c-1.37,1.53-3.15,3.61-4.58,5.08l-4.63,4.39c-1.53,1.25-3.53,3-5.1,4.15l-5.23,3.64c-1.66,1-3.84,2.36-5.53,3.28l-5.69,2.85c-1.76.73-4.09,1.78-5.88,2.45l-6,2c-1.85.49-4.3,1.2-6.16,1.62l-6.23,1.19c-1.91.23-4.46.6-6.37.77l-6.31.32c-2,0-4.57,0-6.52-.12l-6.26-.56c-2-.32-4.63-.68-6.6-1.07l-6.07-1.45c-2-.62-4.64-1.4-6.6-2.11l-5.76-2.34c-2-1-4.58-2.2-6.49-3.25l-5.25-3.16c-1.79-1.27-4.2-2.92-5.94-4.27l-4.43-3.77c-1.55-1.53-3.64-3.55-5.12-5.15L18,133.05c-1.27-1.76-3-4.1-4.18-5.91l-2.77-4.71c-1.34-2.72-3-6.41-4.19-9.22-7.94-21.19-5.31-45.81,9.63-67C42.47,9.57,95.1-2.16,134.06,19.46a12.42,12.42,0,0,1,.38,5.74" transform="translate(-1.44 -4.34)"/><path class="cls-26" d="M134.54,24.33C86-2.26,53,32.7,53.22,33.38c.42,1.09,2.59.5,9-1.25,11.62-3.17,38.85-10.6,68.24,4.44a32.16,32.16,0,0,1-1.73,2.74C96.38,21.36,53,31.1,31.78,61.07S19.66,129.89,52,147.84s75.8,8.19,97-21.78,12.11-68.81-20.27-86.76a32.16,32.16,0,0,0,1.73-2.74l4.93,2.79c4.21,2.66,7,4.42,15.34,11.65,3.86,3.34,4.45,3.26,4.89,3.2a1.23,1.23,0,0,0,.74-.53c.55-.87-.33-14.89-21.85-29.35a11.47,11.47,0,0,0-.47-4.87c16.49,9.13,28,22.82,33.81,38.36h0a74.48,74.48,0,0,1,3.39,12.1l.82,5.34c.17,2.13.41,5,.47,7.11l-.11,5.48c-.2,2.11-.44,4.94-.74,7l-1.07,5.52c-.56,2-1.26,4.77-1.91,6.78l-2.07,5.49c-.89,1.91-2,4.49-3,6.36l-3.11,5.34-2.24,3.34-3.9,5.08c-1.37,1.53-3.15,3.61-4.58,5.08l-4.63,4.39c-1.53,1.25-3.53,3-5.1,4.15l-5.23,3.64c-1.66,1-3.84,2.36-5.53,3.28l-5.69,2.85c-1.76.73-4.09,1.78-5.88,2.45l-6,2c-1.85.49-4.3,1.2-6.16,1.62l-6.23,1.19c-1.91.23-4.46.6-6.37.77l-6.31.32c-2,0-4.57,0-6.52-.12l-6.26-.56c-2-.32-4.63-.68-6.6-1.07l-6.07-1.45c-2-.62-4.64-1.4-6.6-2.11l-5.76-2.34c-2-1-4.58-2.2-6.49-3.25l-5.25-3.16c-1.79-1.27-4.2-2.92-5.94-4.27l-4.43-3.77c-1.55-1.53-3.64-3.55-5.12-5.15L18,133.05c-1.27-1.76-3-4.1-4.18-5.91l-2.77-4.71c-1.34-2.72-3-6.41-4.19-9.22-7.94-21.19-5.31-45.81,9.63-67C42.47,9.57,95.1-2.16,134.06,19.46a11.47,11.47,0,0,1,.47,4.87" transform="translate(-1.44 -4.34)"/><path class="cls-25" d="M134.58,23.54c-49.84-26.81-84.1,8-83.34,10.92a1.3,1.3,0,0,0,.77.74c.8.27.8.27,9.41-2.36,10.49-3.2,38.34-11.7,68.93,3.95-.5.86-1,1.7-1.6,2.51C96.38,21.36,53,31.1,31.78,61.07S19.66,129.89,52,147.84s75.8,8.19,97-21.78,12.11-68.81-20.27-86.76c.57-.8,1.1-1.64,1.6-2.51l1.33.72a91.11,91.11,0,0,1,19.92,15.24c1.55,1.56,5.2,5.23,6.42,5.17,2.79-.14.8-14-14.83-28a95.74,95.74,0,0,0-8.61-6.38,10.63,10.63,0,0,0-.52-4.09c16.49,9.13,28,22.82,33.81,38.36h0a74.48,74.48,0,0,1,3.39,12.1l.82,5.34c.17,2.13.41,5,.47,7.11l-.11,5.48c-.2,2.11-.44,4.94-.74,7l-1.07,5.52c-.56,2-1.26,4.77-1.91,6.78l-2.07,5.49c-.89,1.91-2,4.49-3,6.36l-3.11,5.34-2.24,3.34-3.9,5.08c-1.37,1.53-3.15,3.61-4.58,5.08l-4.63,4.39c-1.53,1.25-3.53,3-5.1,4.15l-5.23,3.64c-1.66,1-3.84,2.36-5.53,3.28l-5.69,2.85c-1.76.73-4.09,1.78-5.88,2.45l-6,2c-1.85.49-4.3,1.2-6.16,1.62l-6.23,1.19c-1.91.23-4.46.6-6.37.77l-6.31.32c-2,0-4.57,0-6.52-.12l-6.26-.56c-2-.32-4.63-.68-6.6-1.07l-6.07-1.45c-2-.62-4.64-1.4-6.6-2.11l-5.76-2.34c-2-1-4.58-2.2-6.49-3.25l-5.25-3.16c-1.79-1.27-4.2-2.92-5.94-4.27l-4.43-3.77c-1.55-1.53-3.64-3.55-5.12-5.15L18,133.05c-1.27-1.76-3-4.1-4.18-5.91l-2.77-4.71c-1.34-2.72-3-6.41-4.19-9.22-7.94-21.19-5.31-45.81,9.63-67C42.47,9.57,95.1-2.16,134.06,19.46a10.63,10.63,0,0,1,.52,4.09" transform="translate(-1.44 -4.34)"/><path class="cls-24" d="M134.6,22.83C87.4-4.09,48.65,30.56,49.2,35.67a1.26,1.26,0,0,0,.54.87c.8.42.87.45,12.72-3.62,13.39-4.6,40-10.18,67.75,4.14-.45.77-.93,1.52-1.44,2.24C96.38,21.36,53,31.1,31.78,61.07S19.66,129.89,52,147.84s75.8,8.19,97-21.78,12.11-68.81-20.27-86.76c.51-.72,1-1.47,1.44-2.24h0c8,4.65,13.9,8.41,22.4,17.81,5.62,6.21,6.63,7.33,7.65,7.22,3.87-.42-1.31-21-19-34.6-1.94-1.49-4.63-3.34-6.69-4.66a9.86,9.86,0,0,0-.53-3.37c16.49,9.13,28,22.82,33.81,38.36h0a74.48,74.48,0,0,1,3.39,12.1l.82,5.34c.17,2.13.41,5,.47,7.11l-.11,5.48c-.2,2.11-.44,4.94-.74,7l-1.07,5.52c-.56,2-1.26,4.77-1.91,6.78l-2.07,5.49c-.89,1.91-2,4.49-3,6.36l-3.11,5.34-2.24,3.34-3.9,5.08c-1.37,1.53-3.15,3.61-4.58,5.08l-4.63,4.39c-1.53,1.25-3.53,3-5.1,4.15l-5.23,3.64c-1.66,1-3.84,2.36-5.53,3.28l-5.69,2.85c-1.76.73-4.09,1.78-5.88,2.45l-6,2c-1.85.49-4.3,1.2-6.16,1.62l-6.23,1.19c-1.91.23-4.46.6-6.37.77l-6.31.32c-2,0-4.57,0-6.52-.12l-6.26-.56c-2-.32-4.63-.68-6.6-1.07l-6.07-1.45c-2-.62-4.64-1.4-6.6-2.11l-5.76-2.34c-2-1-4.58-2.2-6.49-3.25l-5.25-3.16c-1.79-1.27-4.2-2.92-5.94-4.27l-4.43-3.77c-1.55-1.53-3.64-3.55-5.12-5.15L18,133.05c-1.27-1.76-3-4.1-4.18-5.91l-2.77-4.71c-1.34-2.72-3-6.41-4.19-9.22-7.94-21.19-5.31-45.81,9.63-67C42.47,9.57,95.1-2.16,134.06,19.46a9.86,9.86,0,0,1,.53,3.37" transform="translate(-1.44 -4.34)"/><path class="cls-23" d="M134.58,22.18c-53.47-28.83-87.67,12.06-87.75,15a1.33,1.33,0,0,0,.33,1c.59.43.88.65,10.43-3C90,22.59,114.85,29.4,130,37.33c-.41.68-.84,1.34-1.29,2C96.38,21.36,53,31.1,31.78,61.07S19.66,129.89,52,147.84s75.8,8.19,97-21.78,12.11-68.81-20.27-86.76c.45-.64.88-1.3,1.29-2l4.87,2.87a77.7,77.7,0,0,1,19.81,18.27c5.1,6.8,6.47,8.63,7.64,8.29,2.12-.62,2.39-25.47-27.78-44.57a9.17,9.17,0,0,0-.51-2.72c16.49,9.13,28,22.82,33.81,38.36h0a74.48,74.48,0,0,1,3.39,12.1l.82,5.34c.17,2.13.41,5,.47,7.11l-.11,5.48c-.2,2.11-.44,4.94-.74,7l-1.07,5.52c-.56,2-1.26,4.77-1.91,6.78l-2.07,5.49c-.89,1.91-2,4.49-3,6.36l-3.11,5.34-2.24,3.34-3.9,5.08c-1.37,1.53-3.15,3.61-4.58,5.08l-4.63,4.39c-1.53,1.25-3.53,3-5.1,4.15l-5.23,3.64c-1.66,1-3.84,2.36-5.53,3.28l-5.69,2.85c-1.76.73-4.09,1.78-5.88,2.45l-6,2c-1.85.49-4.3,1.2-6.16,1.62l-6.23,1.19c-1.91.23-4.46.6-6.37.77l-6.31.32c-2,0-4.57,0-6.52-.12l-6.26-.56c-2-.32-4.63-.68-6.6-1.07l-6.07-1.45c-2-.62-4.64-1.4-6.6-2.11l-5.76-2.34c-2-1-4.58-2.2-6.49-3.25l-5.25-3.16c-1.79-1.27-4.2-2.92-5.94-4.27l-4.43-3.77c-1.55-1.53-3.64-3.55-5.12-5.15L18,133.05c-1.27-1.76-3-4.1-4.18-5.91l-2.77-4.71c-1.34-2.72-3-6.41-4.19-9.22-7.94-21.19-5.31-45.81,9.63-67C42.47,9.57,95.1-2.16,134.06,19.46a9.17,9.17,0,0,1,.51,2.72" transform="translate(-1.44 -4.34)"/><path class="cls-22" d="M134.53,21.58C78.1-8.35,43.63,38.7,44.64,39.9c.4.47.82,1,6.83-1.65,20-8.67,46.93-16.59,78.41-.65q-.54.88-1.13,1.71C96.38,21.36,53,31.1,31.78,61.07S19.66,129.89,52,147.84s75.8,8.19,97-21.78,12.11-68.81-20.27-86.76q.59-.83,1.13-1.71l4.84,2.88c12.66,8.42,16.37,13.95,26.27,28.74.56.83,1.25,2.17,2.2,2.5a1.2,1.2,0,0,0,.88-.08c2.07-1.28,2.81-29.86-29.54-50a8.53,8.53,0,0,0-.47-2.12c16.49,9.13,28,22.82,33.81,38.36h0a74.48,74.48,0,0,1,3.39,12.1l.82,5.34c.17,2.13.41,5,.47,7.11l-.11,5.48c-.2,2.11-.44,4.94-.74,7l-1.07,5.52c-.56,2-1.26,4.77-1.91,6.78l-2.07,5.49c-.89,1.91-2,4.49-3,6.36l-3.11,5.34-2.24,3.34-3.9,5.08c-1.37,1.53-3.15,3.61-4.58,5.08l-4.63,4.39c-1.53,1.25-3.53,3-5.1,4.15l-5.23,3.64c-1.66,1-3.84,2.36-5.53,3.28l-5.69,2.85c-1.76.73-4.09,1.78-5.88,2.45l-6,2c-1.85.49-4.3,1.2-6.16,1.62l-6.23,1.19c-1.91.23-4.46.6-6.37.77l-6.31.32c-2,0-4.57,0-6.52-.12l-6.26-.56c-2-.32-4.63-.68-6.6-1.07l-6.07-1.45c-2-.62-4.64-1.4-6.6-2.11l-5.76-2.34c-2-1-4.58-2.2-6.49-3.25l-5.25-3.16c-1.79-1.27-4.2-2.92-5.94-4.27l-4.43-3.77c-1.55-1.53-3.64-3.55-5.12-5.15L18,133.05c-1.27-1.76-3-4.1-4.18-5.91l-2.77-4.71c-1.34-2.72-3-6.41-4.19-9.22-7.94-21.19-5.31-45.81,9.63-67C42.47,9.57,95.1-2.16,134.06,19.46a8.53,8.53,0,0,1,.47,2.12" transform="translate(-1.44 -4.34)"/><path class="cls-21" d="M134.46,21c-60.33-31.8-93.12,20.14-92.72,21a1.32,1.32,0,0,0,.85.63c.75.14.75.14,14.11-6.1,8.77-4.1,39.94-16.12,73,1.31q-.45.72-.93,1.4C96.38,21.36,53,31.1,31.78,61.07S19.66,129.89,52,147.84s75.8,8.19,97-21.78,12.11-68.81-20.27-86.76q.48-.68.93-1.4l4.81,2.88c11.36,7.58,19,16.27,25.38,29,3.42,6.8,4,7.39,4.75,7.37,3.75-.14,3.68-27.22-17.21-46.41a73.05,73.05,0,0,0-13-9.76,8,8,0,0,0-.4-1.57c16.49,9.13,28,22.82,33.81,38.36h0a74.48,74.48,0,0,1,3.39,12.1l.82,5.34c.17,2.13.41,5,.47,7.11l-.11,5.48c-.2,2.11-.44,4.94-.74,7l-1.07,5.52c-.56,2-1.26,4.77-1.91,6.78l-2.07,5.49c-.89,1.91-2,4.49-3,6.36l-3.11,5.34-2.24,3.34-3.9,5.08c-1.37,1.53-3.15,3.61-4.58,5.08l-4.63,4.39c-1.53,1.25-3.53,3-5.1,4.15l-5.23,3.64c-1.66,1-3.84,2.36-5.53,3.28l-5.69,2.85c-1.76.73-4.09,1.78-5.88,2.45l-6,2c-1.85.49-4.3,1.2-6.16,1.62l-6.23,1.19c-1.91.23-4.46.6-6.37.77l-6.31.32c-2,0-4.57,0-6.52-.12l-6.26-.56c-2-.32-4.63-.68-6.6-1.07l-6.07-1.45c-2-.62-4.64-1.4-6.6-2.11l-5.76-2.34c-2-1-4.58-2.2-6.49-3.25l-5.25-3.16c-1.79-1.27-4.2-2.92-5.94-4.27l-4.43-3.77c-1.55-1.53-3.64-3.55-5.12-5.15L18,133.05c-1.27-1.76-3-4.1-4.18-5.91l-2.77-4.71c-1.34-2.72-3-6.41-4.19-9.22-7.94-21.19-5.31-45.81,9.63-67C42.47,9.57,95.1-2.16,134.06,19.46a8,8,0,0,1,.4,1.57" transform="translate(-1.44 -4.34)"/><path class="cls-20" d="M134.37,20.51C74.24-11,38.34,38.14,38.89,44.44c0,.33.1.84.37,1,.71.5.9.63,11.56-5.34,9.4-5.26,42.85-21,78.67-1.91q-.36.55-.73,1.08C96.38,21.36,53,31.1,31.78,61.07S19.66,129.89,52,147.84s75.8,8.19,97-21.78,12.11-68.81-20.27-86.76q.38-.53.73-1.08l4.78,2.88C139,44.28,153.41,54,161.34,75.84c2.54,7,3,7.06,3.37,7.11,3,.42,7.63-21.87-10.39-45.24-7-9.14-16.76-15.21-20-17.21a7.41,7.41,0,0,0-.3-1c16.49,9.13,28,22.82,33.81,38.36h0a74.48,74.48,0,0,1,3.39,12.1l.82,5.34c.17,2.13.41,5,.47,7.11l-.11,5.48c-.2,2.11-.44,4.94-.74,7l-1.07,5.52c-.56,2-1.26,4.77-1.91,6.78l-2.07,5.49c-.89,1.91-2,4.49-3,6.36l-3.11,5.34-2.24,3.34-3.9,5.08c-1.37,1.53-3.15,3.61-4.58,5.08l-4.63,4.39c-1.53,1.25-3.53,3-5.1,4.15l-5.23,3.64c-1.66,1-3.84,2.36-5.53,3.28l-5.69,2.85c-1.76.73-4.09,1.78-5.88,2.45l-6,2c-1.85.49-4.3,1.2-6.16,1.62l-6.23,1.19c-1.91.23-4.46.6-6.37.77l-6.31.32c-2,0-4.57,0-6.52-.12l-6.26-.56c-2-.32-4.63-.68-6.6-1.07l-6.07-1.45c-2-.62-4.64-1.4-6.6-2.11l-5.76-2.34c-2-1-4.58-2.2-6.49-3.25l-5.25-3.16c-1.79-1.27-4.2-2.92-5.94-4.27l-4.43-3.77c-1.55-1.53-3.64-3.55-5.12-5.15L18,133.05c-1.27-1.76-3-4.1-4.18-5.91l-2.77-4.71c-1.34-2.72-3-6.41-4.19-9.22-7.94-21.19-5.31-45.81,9.63-67C42.47,9.57,95.1-2.16,134.06,19.46a7.41,7.41,0,0,1,.3,1" transform="translate(-1.44 -4.34)"/><path class="cls-18" d="M134.25,20c-64.5-33.69-101,23.56-98.63,28.86a1.26,1.26,0,0,0,.76.67c.83.16.83.16,8.87-5.12,26.72-17.53,58.14-19.73,84-5.89l-.52.76C96.38,21.36,53,31.1,31.78,61.07S19.66,129.89,52,147.84s75.8,8.19,97-21.78,12.11-68.81-20.27-86.76l.52-.76L134,41.42c9.86,6.66,23.6,18.53,29.06,44.7a9.84,9.84,0,0,0,1.19,3.16,1.1,1.1,0,0,0,.88.17C169.42,88,176.87,45.23,134.25,20a70.7,70.7,0,0,1,33.63,37.79h0a74.48,74.48,0,0,1,3.39,12.1l.82,5.34c.17,2.13.41,5,.47,7.11l-.11,5.48c-.2,2.11-.44,4.94-.74,7l-1.07,5.52c-.56,2-1.26,4.77-1.91,6.78l-2.07,5.49c-.89,1.91-2,4.49-3,6.36l-3.11,5.34-2.24,3.34-3.9,5.08c-1.37,1.53-3.15,3.61-4.58,5.08l-4.63,4.39c-1.53,1.25-3.53,3-5.1,4.15l-5.23,3.64c-1.66,1-3.84,2.36-5.53,3.28l-5.69,2.85c-1.76.73-4.09,1.78-5.88,2.45l-6,2c-1.85.49-4.3,1.2-6.16,1.62l-6.23,1.19c-1.91.23-4.46.6-6.37.77l-6.31.32c-2,0-4.57,0-6.52-.12l-6.26-.56c-2-.32-4.63-.68-6.6-1.07l-6.07-1.45c-2-.62-4.64-1.4-6.6-2.11l-5.76-2.34c-2-1-4.58-2.2-6.49-3.25l-5.25-3.16c-1.79-1.27-4.2-2.92-5.94-4.27l-4.43-3.77c-1.55-1.53-3.64-3.55-5.12-5.15L18,133.05c-1.27-1.76-3-4.1-4.18-5.91l-2.77-4.71c-1.34-2.72-3-6.41-4.19-9.22-7.94-21.19-5.31-45.81,9.63-67C42.47,9.57,95.1-2.16,134.06,19.46q.1.27.18.57" transform="translate(-1.44 -4.34)"/><path class="cls-4" d="M128.76,39.3C96.38,21.36,53,31.1,31.78,61.07S19.66,129.89,52,147.84s75.8,8.19,97-21.78,12.11-68.81-20.27-86.76l5,2.46c22.19,15,27.77,36,28.54,51,.07,1.29-.2,3.38.77,4.24a1,1,0,0,0,.89.11c4.44-1.69,18.26-48.73-29.84-77.49,16.45,9,28,22.71,33.77,38.24h0a74.48,74.48,0,0,1,3.39,12.1l.82,5.34c.17,2.13.41,5,.47,7.11l-.11,5.48c-.2,2.11-.44,4.94-.74,7l-1.07,5.52c-.56,2-1.26,4.77-1.91,6.78l-2.07,5.49c-.89,1.91-2,4.49-3,6.36l-3.11,5.34-2.24,3.34-3.9,5.08c-1.37,1.53-3.15,3.61-4.58,5.08l-4.63,4.39c-1.53,1.25-3.53,3-5.1,4.15l-5.23,3.64c-1.66,1-3.84,2.36-5.53,3.28l-5.69,2.85c-1.76.73-4.09,1.78-5.88,2.45l-6,2c-1.85.49-4.3,1.2-6.16,1.62l-6.23,1.19c-1.91.23-4.46.6-6.37.77l-6.31.32c-2,0-4.57,0-6.52-.12l-6.26-.56c-2-.32-4.63-.68-6.6-1.07l-6.07-1.45c-2-.62-4.64-1.4-6.6-2.11l-5.76-2.34c-2-1-4.58-2.2-6.49-3.25l-5.25-3.16c-1.79-1.27-4.2-2.92-5.94-4.27l-4.43-3.77c-1.55-1.53-3.64-3.55-5.12-5.15L18,133.05c-1.27-1.76-3-4.1-4.18-5.91l-2.77-4.71c-1.34-2.72-3-6.41-4.19-9.22-7.94-21.19-5.31-45.81,9.63-67C37.35,16.8,75.38,3.43,109.72,10.49h0C49.22,1.25,30.67,51.87,31.93,54.41a1.17,1.17,0,0,0,.79.61c1.45.09,2.91-1.77,4-2.7,41.34-34.71,78.31-21,92.29-13.42l-.28.4" transform="translate(-1.44 -4.34)"/><path class="cls-5" d="M128.76,39.3C96.38,21.36,53,31.1,31.78,61.07S19.66,129.89,52,147.84s75.8,8.19,97-21.78,12.11-68.81-20.27-86.76l4.72,2.8C154.75,56.5,164.42,80,159.35,105c-.2,1-1.13,2.54-.5,3.33.18.22.68.2.95.09,6.83-2.68,25.92-50.54-17.55-83.79a72.19,72.19,0,0,1,25.63,33.17l1.71,5.12c.53,2.09,1.25,4.86,1.68,7l.82,5.34c.17,2.13.41,5,.47,7.11l-.11,5.48c-.2,2.11-.44,4.94-.74,7l-1.07,5.52c-.56,2-1.26,4.77-1.91,6.78l-2.07,5.49c-.89,1.91-2,4.49-3,6.36l-3.11,5.34-2.24,3.34-3.9,5.08c-1.37,1.53-3.15,3.61-4.58,5.08l-4.63,4.39c-1.53,1.25-3.53,3-5.1,4.15l-5.23,3.64c-1.66,1-3.84,2.36-5.53,3.28l-5.69,2.85c-1.76.73-4.09,1.78-5.88,2.45l-6,2c-1.85.49-4.3,1.2-6.16,1.62l-6.23,1.19c-1.91.23-4.46.6-6.37.77l-6.31.32c-2,0-4.57,0-6.52-.12l-6.26-.56c-2-.32-4.63-.68-6.6-1.07l-6.07-1.45c-2-.62-4.64-1.4-6.6-2.11l-5.76-2.34c-2-1-4.58-2.2-6.49-3.25l-5.25-3.16c-1.79-1.27-4.2-2.92-5.94-4.27l-4.43-3.77c-1.55-1.53-3.64-3.55-5.12-5.15L18,133.05c-1.27-1.76-3-4.1-4.18-5.91l-2.77-4.71c-1.34-2.72-3-6.41-4.19-9.22-7.94-21.19-5.31-45.81,9.63-67C34.18,21.28,64.21,7.87,93.87,8.67L88.17,9c-56.31,7.1-61.28,55.27-61.06,55.72a1,1,0,0,0,.83.54c2.26-.32,3.33-4.15,4.72-6,19.23-25,60.44-39.37,96.13-20l0,0" transform="translate(-1.44 -4.34)"/><path class="cls-6" d="M80.25,9.52C15.92,23.92,1.65,115.11,46.14,144.67c59,39.21,134.59-19.08,123.4-77.18C165.66,47.32,154.72,36,149.46,30.55a71.21,71.21,0,0,1,18.42,27.27l1.71,5.12c.53,2.09,1.25,4.86,1.68,7l.82,5.34c.17,2.13.41,5,.47,7.11l-.11,5.48c-.2,2.11-.44,4.94-.74,7l-1.07,5.52c-.56,2-1.26,4.77-1.91,6.78l-2.07,5.49c-.89,1.91-2,4.49-3,6.36l-3.11,5.34-2.24,3.34-3.9,5.08c-1.37,1.53-3.15,3.61-4.58,5.08l-4.63,4.39c-1.53,1.25-3.53,3-5.1,4.15l-5.23,3.64c-1.66,1-3.84,2.36-5.53,3.28l-5.69,2.85c-1.76.73-4.09,1.78-5.88,2.45l-6,2c-1.85.49-4.3,1.2-6.16,1.62l-6.23,1.19c-1.91.23-4.46.6-6.37.77l-6.31.32c-2,0-4.57,0-6.52-.12l-6.26-.56c-2-.32-4.63-.68-6.6-1.07l-6.07-1.45c-2-.62-4.64-1.4-6.6-2.11l-5.76-2.34c-2-1-4.58-2.2-6.49-3.25l-5.25-3.16c-1.79-1.27-4.2-2.92-5.94-4.27l-4.43-3.77c-1.55-1.53-3.64-3.55-5.12-5.15L18,133.05c-1.27-1.76-3-4.1-4.18-5.91l-2.77-4.71c-1.34-2.72-3-6.41-4.19-9.22-7.94-21.19-5.31-45.81,9.63-67C32.22,24,57.7,11,84,8.93c-1.13.18-2.64.38-3.76.59" transform="translate(-1.44 -4.34)"/><path class="cls-7" d="M72.44,10.81C12,30.16-1.66,120.26,51.53,148.54c63.68,33.85,134-31,116.66-88A71.4,71.4,0,0,0,154.76,36a70.56,70.56,0,0,1,13.12,21.83h0a74.48,74.48,0,0,1,3.39,12.1l.82,5.34c.17,2.13.41,5,.47,7.11l-.11,5.48c-.2,2.11-.44,4.94-.74,7l-1.07,5.52c-.56,2-1.26,4.77-1.91,6.78l-2.07,5.49c-.89,1.91-2,4.49-3,6.36l-3.11,5.34-2.24,3.34-3.9,5.08c-1.37,1.53-3.15,3.61-4.58,5.08l-4.63,4.39c-1.53,1.25-3.53,3-5.1,4.15l-5.23,3.64c-1.66,1-3.84,2.36-5.53,3.28l-5.69,2.85c-1.76.73-4.09,1.78-5.88,2.45l-6,2c-1.85.49-4.3,1.2-6.16,1.62l-6.23,1.19c-1.91.23-4.46.6-6.37.77l-6.31.32c-2,0-4.57,0-6.52-.12l-6.26-.56c-2-.32-4.63-.68-6.6-1.07l-6.07-1.45c-2-.62-4.64-1.4-6.6-2.11l-5.76-2.34c-2-1-4.58-2.2-6.49-3.25l-5.25-3.16c-1.79-1.27-4.2-2.92-5.94-4.27l-4.43-3.77c-1.55-1.53-3.64-3.55-5.12-5.15L18,133.05c-1.27-1.76-3-4.1-4.18-5.91l-2.77-4.71c-1.34-2.72-3-6.41-4.19-9.22-7.94-21.19-5.31-45.81,9.63-67C30.6,26.33,52.55,13.78,75.9,9.91c-1,.27-2.43.6-3.47.9" transform="translate(-1.44 -4.34)"/><path class="cls-8" d="M64.78,12.81C5.86,37.5,1,128.5,57.37,151.91,120,177.95,191,113.59,165.83,53.54A73.59,73.59,0,0,0,159,41.25a70.08,70.08,0,0,1,8.91,16.56h0a74.48,74.48,0,0,1,3.39,12.1l.82,5.34c.17,2.13.41,5,.47,7.11l-.11,5.48c-.2,2.11-.44,4.94-.74,7l-1.07,5.52c-.56,2-1.26,4.77-1.91,6.78l-2.07,5.49c-.89,1.91-2,4.49-3,6.36l-3.11,5.34-2.24,3.34-3.9,5.08c-1.37,1.53-3.15,3.61-4.58,5.08l-4.63,4.39c-1.53,1.25-3.53,3-5.1,4.15l-5.23,3.64c-1.66,1-3.84,2.36-5.53,3.28l-5.69,2.85c-1.76.73-4.09,1.78-5.88,2.45l-6,2c-1.85.49-4.3,1.2-6.16,1.62l-6.23,1.19c-1.91.23-4.46.6-6.37.77l-6.31.32c-2,0-4.57,0-6.52-.12l-6.26-.56c-2-.32-4.63-.68-6.6-1.07l-6.07-1.45c-2-.62-4.64-1.4-6.6-2.11l-5.76-2.34c-2-1-4.58-2.2-6.49-3.25l-5.25-3.16c-1.79-1.27-4.2-2.92-5.94-4.27l-4.43-3.77c-1.55-1.53-3.64-3.55-5.12-5.15L18,133.05c-1.27-1.76-3-4.1-4.18-5.91l-2.77-4.71c-1.34-2.72-3-6.41-4.19-9.22-7.94-21.19-5.31-45.81,9.63-67C29.15,28.37,48.12,16.43,68.76,11.38c-1.2.43-2.8,1-4,1.44" transform="translate(-1.44 -4.34)"/><path class="cls-9" d="M57.32,15.51C4.27,42.68-.83,134.66,63.49,154.71,125.2,173.95,197.1,111,163,47.48c-.16-.31-.4-.7-.57-1a69.71,69.71,0,0,1,5.46,11.34l1.71,5.12c.53,2.09,1.25,4.86,1.68,7l.82,5.34c.17,2.13.41,5,.47,7.11l-.11,5.48c-.2,2.11-.44,4.94-.74,7l-1.07,5.52c-.56,2-1.26,4.77-1.91,6.78l-2.07,5.49c-.89,1.91-2,4.49-3,6.36l-3.11,5.34-2.24,3.34-3.9,5.08c-1.37,1.53-3.15,3.61-4.58,5.08l-4.63,4.39c-1.53,1.25-3.53,3-5.1,4.15l-5.23,3.64c-1.66,1-3.84,2.36-5.53,3.28l-5.69,2.85c-1.76.73-4.09,1.78-5.88,2.45l-6,2c-1.85.49-4.3,1.2-6.16,1.62l-6.23,1.19c-1.91.23-4.46.6-6.37.77l-6.31.32c-2,0-4.57,0-6.52-.12l-6.26-.56c-2-.32-4.63-.68-6.6-1.07l-6.07-1.45c-2-.62-4.64-1.4-6.6-2.11l-5.76-2.34c-2-1-4.58-2.2-6.49-3.25l-5.25-3.16c-1.79-1.27-4.2-2.92-5.94-4.27l-4.43-3.77c-1.55-1.53-3.64-3.55-5.12-5.15L18,133.05c-1.27-1.76-3-4.1-4.18-5.91l-2.77-4.71c-1.34-2.72-3-6.41-4.19-9.22-7.94-21.19-5.31-45.81,9.63-67a89.25,89.25,0,0,1,45.71-33h0c-1.47.68-3.46,1.54-4.9,2.28" transform="translate(-1.44 -4.34)"/><path class="cls-10" d="M51,18.34C-1.63,50.9,1.11,142,69.83,157c64.6,14,121.68-48.9,95.44-105.2q1.45,3,2.61,6.06l1.71,5.12c.53,2.09,1.25,4.86,1.68,7l.82,5.34c.17,2.13.41,5,.47,7.11l-.11,5.48c-.2,2.11-.44,4.94-.74,7l-1.07,5.52c-.56,2-1.26,4.77-1.91,6.78l-2.07,5.49c-.89,1.91-2,4.49-3,6.36l-3.11,5.34-2.24,3.34-3.9,5.08c-1.37,1.53-3.15,3.61-4.58,5.08l-4.63,4.39c-1.53,1.25-3.53,3-5.1,4.15l-5.23,3.64c-1.66,1-3.84,2.36-5.53,3.28l-5.69,2.85c-1.76.73-4.09,1.78-5.88,2.45l-6,2c-1.85.49-4.3,1.2-6.16,1.62l-6.23,1.19c-1.91.23-4.46.6-6.37.77l-6.31.32c-2,0-4.57,0-6.52-.12l-6.26-.56c-2-.32-4.63-.68-6.6-1.07l-6.07-1.45c-2-.62-4.64-1.4-6.6-2.11l-5.76-2.34c-2-1-4.58-2.2-6.49-3.25l-5.25-3.16c-1.79-1.27-4.2-2.92-5.94-4.27l-4.43-3.77c-1.55-1.53-3.64-3.55-5.12-5.15L18,133.05c-1.27-1.76-3-4.1-4.18-5.91l-2.77-4.71c-1.34-2.72-3-6.41-4.19-9.22-7.94-21.19-5.31-45.81,9.63-67A88.5,88.5,0,0,1,56.1,15.43h0c-1.54.86-3.62,2-5.12,2.91" transform="translate(-1.44 -4.34)"/><path class="cls-11" d="M49.88,18.24C-7,56.28,5.37,143.41,69.65,157.38c62.21,13.52,119-44.55,98-100.22l.25.66a74.48,74.48,0,0,1,3.39,12.1l.82,5.34c.17,2.13.41,5,.47,7.11l-.11,5.48c-.2,2.11-.44,4.94-.74,7l-1.07,5.52c-.56,2-1.26,4.77-1.91,6.78l-2.07,5.49c-.89,1.91-2,4.49-3,6.36l-3.11,5.34-2.24,3.34-3.9,5.08c-1.37,1.53-3.15,3.61-4.58,5.08l-4.63,4.39c-1.53,1.25-3.53,3-5.1,4.15l-5.23,3.64c-1.66,1-3.84,2.36-5.53,3.28l-5.69,2.85c-1.76.73-4.09,1.78-5.88,2.45l-6,2c-1.85.49-4.3,1.2-6.16,1.62l-6.23,1.19c-1.91.23-4.46.6-6.37.77l-6.31.32c-2,0-4.57,0-6.52-.12l-6.26-.56c-2-.32-4.63-.68-6.6-1.07l-6.07-1.45c-2-.62-4.64-1.4-6.6-2.11l-5.76-2.34c-2-1-4.58-2.2-6.49-3.25l-5.25-3.16c-1.79-1.27-4.2-2.92-5.94-4.27l-4.43-3.77c-1.55-1.53-3.64-3.55-5.12-5.15L18,133.05c-1.27-1.76-3-4.1-4.18-5.91l-2.77-4.71c-1.34-2.72-3-6.41-4.19-9.22-7.94-21.19-5.31-45.81,9.63-67A87.74,87.74,0,0,1,50.28,18l-.4.25" transform="translate(-1.44 -4.34)"/><path class="cls-12" d="M43,22.18C-6.18,61.49,5.44,149.93,76.22,159.1c55.36,7.17,103.39-37.54,95.16-88.58l.77,5.35c.14,2,.35,4.55.4,6.51l-.11,5.48c-.2,2.11-.44,4.94-.74,7l-1.07,5.52c-.56,2-1.26,4.77-1.91,6.78l-2.07,5.49c-.89,1.91-2,4.49-3,6.36l-3.11,5.34-2.24,3.34-3.9,5.08c-1.37,1.53-3.15,3.61-4.58,5.08l-4.63,4.39c-1.53,1.25-3.53,3-5.1,4.15l-5.23,3.64c-1.66,1-3.84,2.36-5.53,3.28l-5.69,2.85c-1.76.73-4.09,1.78-5.88,2.45l-6,2c-1.85.49-4.3,1.2-6.16,1.62l-6.23,1.19c-1.91.23-4.46.6-6.37.77l-6.31.32c-2,0-4.57,0-6.52-.12l-6.26-.56c-2-.32-4.63-.68-6.6-1.07l-6.07-1.45c-2-.62-4.64-1.4-6.6-2.11l-5.76-2.34c-2-1-4.58-2.2-6.49-3.25l-5.25-3.16c-1.79-1.27-4.2-2.92-5.94-4.27l-4.43-3.77c-1.55-1.53-3.64-3.55-5.12-5.15L18,133.05c-1.27-1.76-3-4.1-4.18-5.91l-2.77-4.71c-1.34-2.72-3-6.41-4.19-9.22-7.94-21.19-5.31-45.81,9.63-67A87,87,0,0,1,44.62,21c-.5.37-1.16.85-1.65,1.23" transform="translate(-1.44 -4.34)"/><path class="cls-13" d="M36.4,26.74C-9.41,68.7,11.15,156.94,83,160.27c48.1,2.23,90-34,89.61-77.65l-.13,5.48c-.2,2-.43,4.75-.72,6.78l-1.07,5.52c-.56,2-1.26,4.77-1.91,6.78l-2.07,5.49c-.89,1.91-2,4.49-3,6.36l-3.11,5.34-2.24,3.34-3.9,5.08c-1.37,1.53-3.15,3.61-4.58,5.08l-4.63,4.39c-1.53,1.25-3.53,3-5.1,4.15l-5.23,3.64c-1.66,1-3.84,2.36-5.53,3.28l-5.69,2.85c-1.76.73-4.09,1.78-5.88,2.45l-6,2c-1.85.49-4.3,1.2-6.16,1.62l-6.23,1.19c-1.91.23-4.46.6-6.37.77l-6.31.32c-2,0-4.57,0-6.52-.12l-6.26-.56c-2-.32-4.63-.68-6.6-1.07l-6.07-1.45c-2-.62-4.64-1.4-6.6-2.11l-5.76-2.34c-2-1-4.58-2.2-6.49-3.25l-5.25-3.16c-1.79-1.27-4.2-2.92-5.94-4.27l-4.43-3.77c-1.55-1.53-3.64-3.55-5.12-5.15L18,133.05c-1.27-1.76-3-4.1-4.18-5.91l-2.77-4.71c-1.34-2.72-3-6.41-4.19-9.22-7.94-21.19-5.31-45.81,9.63-67A86.21,86.21,0,0,1,39,24.42h0c-.78.69-1.83,1.61-2.6,2.31" transform="translate(-1.44 -4.34)"/><path class="cls-14" d="M30.22,31.84C-13.15,82.24,18,166.35,95.55,160.62c32.43-2.4,70.19-26.61,76.31-66.76-.29,2-.84,4.58-1.21,6.55-.56,2-1.26,4.77-1.91,6.78l-2.07,5.49c-.89,1.91-2,4.49-3,6.36l-3.11,5.34-2.24,3.34-3.9,5.08c-1.37,1.53-3.15,3.61-4.58,5.08l-4.63,4.39c-1.53,1.25-3.53,3-5.1,4.15l-5.23,3.64c-1.66,1-3.84,2.36-5.53,3.28l-5.69,2.85c-1.76.73-4.09,1.78-5.88,2.45l-6,2c-1.85.49-4.3,1.2-6.16,1.62l-6.23,1.19c-1.91.23-4.46.6-6.37.77l-6.31.32c-2,0-4.57,0-6.52-.12l-6.26-.56c-2-.32-4.63-.68-6.6-1.07l-6.07-1.45c-2-.62-4.64-1.4-6.6-2.11l-5.76-2.34c-2-1-4.58-2.2-6.49-3.25l-5.25-3.16c-1.79-1.27-4.2-2.92-5.94-4.27l-4.43-3.77c-1.55-1.53-3.64-3.55-5.12-5.15L18,133.05c-1.27-1.76-3-4.1-4.18-5.91l-2.77-4.71c-1.34-2.72-3-6.41-4.19-9.22-7.94-21.19-5.31-45.81,9.63-67A85.45,85.45,0,0,1,33.32,28.55l-3.05,3.23-.05.06" transform="translate(-1.44 -4.34)"/><path class="cls-15" d="M24.45,37.42C-13.89,91,25.61,172.17,102.51,160.32c23.57-3.63,55.2-20.18,66.77-54.87-.7,2.2-1.81,5.07-2.62,7.22-.89,1.91-2,4.49-3,6.36l-3.11,5.34-2.24,3.34-3.9,5.08c-1.37,1.53-3.15,3.61-4.58,5.08l-4.63,4.39c-1.53,1.25-3.53,3-5.1,4.15l-5.23,3.64c-1.66,1-3.84,2.36-5.53,3.28l-5.69,2.85c-1.76.73-4.09,1.78-5.88,2.45l-6,2c-1.85.49-4.3,1.2-6.16,1.62l-6.23,1.19c-1.91.23-4.46.6-6.37.77l-6.31.32c-2,0-4.57,0-6.52-.12l-6.26-.56c-2-.32-4.63-.68-6.6-1.07l-6.07-1.45c-2-.62-4.64-1.4-6.6-2.11l-5.76-2.34c-2-1-4.58-2.2-6.49-3.25l-5.25-3.16c-1.79-1.27-4.2-2.92-5.94-4.27l-4.43-3.77c-1.55-1.53-3.64-3.55-5.12-5.15L18,133.05c-1.27-1.76-3-4.1-4.18-5.91l-2.77-4.71c-1.34-2.72-3-6.41-4.19-9.22-7.94-21.19-5.31-45.81,9.63-67A84.7,84.7,0,0,1,27.38,33.7l-2.74,3.47-.19.25" transform="translate(-1.44 -4.34)"/><path class="cls-16" d="M19.08,43.31c-34.71,56.16,11.79,134.07,89,116.58,14.11-3.2,40.12-12.8,55.76-41.17l-3.27,5.65-2.24,3.34-3.9,5.08c-1.37,1.53-3.15,3.61-4.58,5.08l-4.63,4.39c-1.53,1.25-3.53,3-5.1,4.15l-5.23,3.64c-1.66,1-3.84,2.36-5.53,3.28l-5.69,2.85c-1.76.73-4.09,1.78-5.88,2.45l-6,2c-1.85.49-4.3,1.2-6.16,1.62l-6.23,1.19c-1.91.23-4.46.6-6.37.77l-6.31.32c-2,0-4.57,0-6.52-.12l-6.26-.56c-2-.32-4.63-.68-6.6-1.07l-6.07-1.45c-2-.62-4.64-1.4-6.6-2.11l-5.76-2.34c-2-1-4.58-2.2-6.49-3.25l-5.25-3.16c-1.79-1.27-4.2-2.92-5.94-4.27l-4.43-3.77c-1.55-1.53-3.64-3.55-5.12-5.15L18,133.05c-1.27-1.76-3-4.1-4.18-5.91l-2.77-4.71c-1.34-2.72-3-6.41-4.19-9.22-7.94-21.19-5.31-45.81,9.63-67q2-2.8,4.17-5.41c-.48.75-1.13,1.75-1.6,2.5" transform="translate(-1.44 -4.34)"/><path class="cls-38" d="M127.56,31.93c-17.88-5.11-17.88-5.11-23-5.68a127.62,127.62,0,0,0-26.36-.44c-1.6.15-5.08,0-5.08,0-.3-.15-.71-.56-.67-.89.16-1.23,12.6-7.83,31.3-5.57,18,2.17,28.28,11.67,28.51,12.79a1,1,0,0,1-.32.95c-1.2.65-3.1-.77-4.42-1.14" transform="translate(-1.44 -4.34)"/><path class="cls-39" d="M130.13,32.08c-.36.15-6.29-1.65-10.22-2.84a111.45,111.45,0,0,0-15.28-3.15,121.66,121.66,0,0,0-21.05-.79,63.24,63.24,0,0,1-8.86.14c-.32-.15-.82-.52-.79-.87.11-1.13,11.82-7.12,29.87-5,16.12,1.89,26.66,10.35,26.83,11.66a1,1,0,0,1-.49.86" transform="translate(-1.44 -4.34)"/><path class="cls-40" d="M128.25,31.15c-1.6.53-3.84-.85-5.47-1.29-5.16-1.42-14.77-4.06-25.13-4.62a127.73,127.73,0,0,0-14.1-.13c-8.25.42-8.22-.15-8.19-.86s10.35-6.51,28.43-4.45c14.49,1.66,25.06,9.28,25.13,10.57,0,.31-.37.68-.66.78" transform="translate(-1.44 -4.34)"/><path class="cls-41" d="M126.35,30.27c-.24.06-.55-.12-.79-.17-19.12-4.29-20.42-4.41-26.68-4.94A131.92,131.92,0,0,0,85,24.84c-6.58.28-6.79.12-8.14-.9,18.62-12,50.4,3.32,50.34,5.61,0,.33-.52.63-.84.71" transform="translate(-1.44 -4.34)"/><path class="cls-42" d="M124.47,29.45l-6.78-1.4A125,125,0,0,0,98.89,25s-5.36-.34-8.29-.35c-10.77,0-10.77,0-12.19-1,17.87-11,47.19,3,47.06,5.14,0,.36-.65.59-1,.66" transform="translate(-1.44 -4.34)"/><path class="cls-43" d="M122.59,28.7c-2.46.37-5.7-1.1-8.14-1.59a119.92,119.92,0,0,0-16.78-2.35c-5.43-.3-10.87-.12-16.29-.54-.48,0-1-.58-1.4-.82,9.63-5.66,32.17-4.58,43.78,4.69a4.46,4.46,0,0,1-1.17.61" transform="translate(-1.44 -4.34)"/><path class="cls-44" d="M120.69,28a7.2,7.2,0,0,1-1.92-.34c-4.55-.87-9.25-1.77-13.88-2.34-2.16-.27-5-.58-7.22-.71-4.86-.3-9.73-.17-14.59-.61-.52,0-1.08-.58-1.54-.83,7.74-4.4,28.61-4.55,40.48,4.25a5.63,5.63,0,0,1-1.33.58" transform="translate(-1.44 -4.34)"/><path class="cls-45" d="M118.86,27.32c-1.62.15-3.73-.66-5.33-.94-2.23-.39-5.21-.84-7.46-1.11l-1.33-.14c-6.45-.69-9.4-1-12.75-1.09-6.33-.16-6.33-.16-8.73-1,9.72-4.69,28.06-2.83,37,3.75-.43.16-1,.4-1.42.53" transform="translate(-1.44 -4.34)"/><path class="cls-46" d="M116.33,26.58c-3.1.07-7.13-1.17-10.21-1.55l-1.36-.14c-5.76-.6-11.57-.7-17.33-1.33a12.11,12.11,0,0,1-2.34-.83c8.14-3.26,23.19-2.88,33.31,3.42a13.4,13.4,0,0,1-2.07.42" transform="translate(-1.44 -4.34)"/><path class="cls-47" d="M113.87,25.91c-2.33,0-5.39-.82-7.7-1.1-6.35-.79-12.87-.12-19.06-2.24,8-3,21.29-1.61,29.12,2.94a17.27,17.27,0,0,1-2.35.4" transform="translate(-1.44 -4.34)"/><path class="cls-48" d="M111.94,25.25a5.62,5.62,0,0,1-1,0c-1.71-.21-4-.52-5.7-.74-5.38-.68-10.91-.23-16.15-2,5.8-2.08,17-1.73,24.9,2.47-.63.1-1.46.29-2.1.34" transform="translate(-1.44 -4.34)"/><path class="cls-49" d="M106.37,24.37c-4.27-.14-4.27-.14-14.66-2,9.67-1.55,12.49-.76,19.93,2-1.58,0-3.69.08-5.27,0" transform="translate(-1.44 -4.34)"/><path class="cls-50" d="M104.88,23.65a61.69,61.69,0,0,1-9.5-1.28,28,28,0,0,1,12.32,1.2c-.85,0-2,.12-2.82.09" transform="translate(-1.44 -4.34)"/><path class="cls-4" d="M134.11,19.57l-5.51-2.89q2.78,1.28,5.47,2.78l0,.12" transform="translate(-1.44 -4.34)"/></g></g></g></g><text class="cls-56" transform="matrix(0.3, -0.05, -0.14, 0.99, 30.39, 115.34)">IBS-Mali</text></svg>